<svg width="80" height="53" viewBox="0 0 80 53" fill="none" xmlns="http://www.w3.org/2000/svg">
<path d="M11.122 40.6847H10.5816C10.6162 40.229 10.6336 39.8632 10.6336 39.5874C10.6336 38.7628 10.4327 38.1872 10.0343 37.8633C9.63938 37.5365 9.13711 37.3747 8.53085 37.3747C7.72379 37.3747 6.88195 37.6564 6.01258 38.2231C5.14305 38.7898 4.39471 39.6712 3.76782 40.8705C3.14085 42.0698 2.82908 43.3022 2.82908 44.5674C2.82908 45.7937 3.12006 46.7321 3.70203 47.3857C4.2805 48.0394 5.01145 48.3662 5.88772 48.3662C7.07603 48.3662 8.16716 47.7515 9.16131 46.5192C9.2618 46.3963 9.3657 46.3334 9.47659 46.3334C9.56318 46.3334 9.63938 46.3573 9.70177 46.4083C9.76067 46.4563 9.79169 46.5132 9.79169 46.5792C9.79169 46.7381 9.56659 47.0469 9.11631 47.5087C8.66603 47.9703 8.09779 48.3542 7.41201 48.66C6.72964 48.9688 6.0541 49.1217 5.39244 49.1217C4.59228 49.1217 3.85093 48.9418 3.16515 48.5821C2.47912 48.2222 1.94914 47.7066 1.56815 47.0409C1.19058 46.3723 1 45.5808 1 44.6603C1 43.3771 1.38798 42.1028 2.16393 40.8316C2.93988 39.5603 3.90982 38.5799 5.07383 37.8903C6.23768 37.1977 7.37382 36.8529 8.48585 36.8529C8.88414 36.8529 9.28251 36.8919 9.67398 36.9668C9.84368 37.0029 10.54 37.2037 11.7663 37.5725C11.3853 38.5769 11.1705 39.6143 11.122 40.6847ZM16.6195 40.0011C17.2845 40.0011 17.8354 40.2289 18.2753 40.6876C18.7152 41.1434 18.9369 41.779 18.9369 42.5946C18.9369 43.8928 18.4069 45.0621 17.3504 46.0965C16.2938 47.1309 15.1784 47.6466 13.9971 47.6466C13.2732 47.6466 12.6878 47.4426 12.2443 47.0319C11.801 46.6212 11.5793 46.0605 11.5793 45.3529C11.5793 44.1237 11.9845 42.9873 12.7987 41.944C13.8205 40.6487 15.0953 40.0011 16.6195 40.0011ZM15.7534 40.6667C15.1784 40.6667 14.6242 41.0235 14.0872 41.7341C13.5503 42.4446 13.2836 43.4281 13.2836 44.6783C13.2836 45.4399 13.4499 46.0395 13.7789 46.4803C14.0213 46.8011 14.347 46.963 14.7524 46.963C15.3169 46.963 15.8331 46.6571 16.3008 46.0485C16.8931 45.26 17.191 44.2796 17.191 43.1072C17.191 42.2288 17.0559 41.6021 16.7823 41.2274C16.5086 40.8525 16.1657 40.6667 15.7534 40.6667ZM20.1805 42.0879L19.8272 41.782C20.7001 41.0654 21.3964 40.5888 21.916 40.3549C22.4321 40.118 22.8756 40.0011 23.2427 40.0011C23.3883 40.0011 23.4991 40.0281 23.5822 40.0791C23.6619 40.13 23.7035 40.19 23.7035 40.2619C23.7035 40.3129 23.6861 40.4058 23.6549 40.5378L23.1943 42.3037C23.8801 41.6411 24.7426 41.0235 25.7818 40.4478C26.3326 40.1509 26.7865 40.0011 27.1432 40.0011C27.4065 40.0011 27.6144 40.073 27.7598 40.217C27.9088 40.3609 27.9851 40.5707 27.9851 40.8406C27.9851 41.0235 27.9539 41.2274 27.8916 41.4552C27.7841 41.836 27.5035 42.6665 27.0463 43.9437C26.6168 45.137 26.4019 45.9316 26.4019 46.3244C26.4019 46.4473 26.4228 46.5403 26.4609 46.6002C26.5024 46.6632 26.5613 46.6931 26.6341 46.6931C26.8315 46.6931 27.1398 46.5282 27.5589 46.1984C27.8569 45.9616 28.1548 45.7427 28.4527 45.5418L28.6813 45.8656C28.0613 46.4593 27.4203 46.936 26.7553 47.2988C26.3293 47.5296 25.9829 47.6466 25.7057 47.6466C25.4493 47.6466 25.2519 47.5656 25.1099 47.4037C24.9679 47.2419 24.8985 46.9779 24.8985 46.6122C24.8985 46.0905 25.2761 44.7953 26.0279 42.7204C26.2599 41.9829 26.3743 41.5541 26.3743 41.4312C26.3743 41.2573 26.2496 41.1703 26.0001 41.1703C25.7299 41.1703 25.38 41.2933 24.954 41.5392C24.3166 41.902 23.7866 42.3276 23.3605 42.8194C23.0904 43.1372 22.8617 43.6409 22.6815 44.3306L21.8571 47.3947H20.3468C20.6308 46.5163 20.8767 45.6767 21.0882 44.8762L21.9887 41.5392C22.0234 41.4072 22.0407 41.3143 22.0407 41.2573C22.0407 41.1044 21.9714 41.0264 21.8363 41.0264C21.7255 41.0264 21.5696 41.0865 21.3652 41.2094C20.9426 41.4492 20.5477 41.7431 20.1805 42.0879ZM29.7932 40.5767H32.2181C32.6164 39.1135 33.0737 38.0252 33.5864 37.3086C34.1025 36.5951 34.7711 36.0314 35.5955 35.6177C36.42 35.207 37.1994 35 37.9303 35C38.3425 35 38.6543 35.072 38.8621 35.2129C39.0734 35.3538 39.1773 35.5187 39.1773 35.7136C39.1773 35.8905 39.108 36.0373 38.9661 36.1543C38.8241 36.2713 38.6369 36.3312 38.4084 36.3312C38.1693 36.3312 37.7259 36.2713 37.0678 36.1483C36.7456 36.0914 36.4893 36.0614 36.3091 36.0614C35.8622 36.0614 35.4604 36.2982 35.1003 36.775C34.7434 37.2517 34.4559 37.8963 34.2411 38.7088L33.7076 40.5767H36.4095L36.2467 41.2064H33.531L31.9341 46.8161C31.4421 48.5191 30.6523 49.8083 29.5646 50.6838C28.4804 51.5623 27.3026 52 26.0312 52C25.6052 52 25.2831 51.928 25.0614 51.7872C24.8432 51.6432 24.7323 51.4693 24.7323 51.2595C24.7323 51.0796 24.8085 50.9356 24.9609 50.8307C25.1133 50.7228 25.3316 50.6688 25.6155 50.6688C25.7576 50.6688 25.9655 50.6838 26.2427 50.7138C26.7172 50.7678 27.1709 50.7947 27.6039 50.7947C28.2726 50.7947 28.7609 50.6568 29.0623 50.384C29.3672 50.1112 29.672 49.4456 29.9768 48.3812L32.0345 41.2064H29.6131L29.7932 40.5767ZM41.4186 45.182L41.7511 45.5598C40.0953 46.927 38.6786 47.6106 37.4938 47.6106C37.0158 47.6106 36.6486 47.4697 36.3957 47.1909C36.1428 46.909 36.0147 46.4593 36.0147 45.8416C36.0147 44.5913 36.4546 43.3501 37.3344 42.1118C38.3218 40.7056 39.4995 40.0011 40.8747 40.0011C41.3528 40.0011 41.7199 40.106 41.9729 40.3129C42.2258 40.5198 42.3539 40.8046 42.3539 41.1674C42.3539 41.5482 42.2015 41.92 41.8966 42.2887C41.5919 42.6575 41.0479 43.0413 40.2651 43.437C39.8701 43.6289 39.0318 43.9768 37.7467 44.4804C37.6878 44.7953 37.6566 45.0951 37.6566 45.383C37.6566 45.7967 37.7328 46.0875 37.8852 46.2495C38.0377 46.4143 38.2594 46.4952 38.5504 46.4952C38.8274 46.4952 39.1288 46.4263 39.4614 46.2914C39.9083 46.1115 40.5595 45.7397 41.4186 45.182ZM37.8679 43.9228C38.9556 43.503 39.7731 43.0503 40.3204 42.5676C40.6911 42.2288 40.8782 41.8929 40.8782 41.5602C40.8782 41.3113 40.8019 41.1104 40.6496 40.9606C40.4972 40.8136 40.2997 40.7386 40.0572 40.7386C39.8078 40.7386 39.5654 40.8196 39.3297 40.9845C39.0111 41.2003 38.7444 41.5272 38.5296 41.962C38.2178 42.6035 37.9961 43.2571 37.8679 43.9228ZM48.752 45.5059L48.9806 46.0095C47.3594 47.1009 45.9911 47.6466 44.8756 47.6466C44.2833 47.6466 43.8539 47.4637 43.5836 47.1009C43.3168 46.7381 43.1817 46.2763 43.1817 45.7187C43.1817 44.7923 43.4658 43.8388 44.0374 42.8614C44.6055 41.881 45.2983 41.1314 46.1089 40.6067C46.7463 40.2019 47.4668 40.0011 48.267 40.0011C48.7659 40.0011 49.1469 40.082 49.4031 40.2469C49.6629 40.4118 49.7912 40.6097 49.7912 40.8436C49.7912 41.0264 49.7218 41.1734 49.5868 41.2873C49.4516 41.4013 49.2612 41.4582 49.0187 41.4582C48.7832 41.4582 48.4783 41.3653 48.1042 41.1794C47.7196 40.9815 47.3975 40.8826 47.1377 40.8826C46.8086 40.8826 46.476 41.0115 46.1469 41.2724C45.8213 41.5331 45.5062 42.0399 45.2082 42.7895C44.9103 43.539 44.7614 44.2946 44.7614 45.0501C44.7614 45.6047 44.8861 46.0365 45.1389 46.3424C45.3226 46.5762 45.5788 46.6931 45.9114 46.6931C46.7047 46.6931 47.6539 46.2974 48.752 45.5059ZM55.8152 45.5059L56.0438 46.0095C54.4226 47.1009 53.0542 47.6466 51.9388 47.6466C51.3465 47.6466 50.9169 47.4637 50.6468 47.1009C50.3801 46.7381 50.2449 46.2763 50.2449 45.7187C50.2449 44.7923 50.529 43.8388 51.1005 42.8614C51.6687 41.881 52.3615 41.1314 53.172 40.6067C53.8095 40.2019 54.5299 40.0011 55.3301 40.0011C55.829 40.0011 56.21 40.082 56.4663 40.2469C56.7262 40.4118 56.8543 40.6097 56.8543 40.8436C56.8543 41.0264 56.785 41.1734 56.65 41.2873C56.5148 41.4013 56.3243 41.4582 56.0819 41.4582C55.8464 41.4582 55.5415 41.3653 55.1673 41.1794C54.7828 40.9815 54.4606 40.8826 54.2009 40.8826C53.8718 40.8826 53.5392 41.0115 53.2101 41.2724C52.8845 41.5331 52.5693 42.0399 52.2715 42.7895C51.9734 43.539 51.8246 44.2946 51.8246 45.0501C51.8246 45.6047 51.9493 46.0365 52.2021 46.3424C52.3858 46.5762 52.6421 46.6931 52.9746 46.6931C53.7679 46.6931 54.717 46.2974 55.8152 45.5059ZM52.2195 47.2329H52.8845L52.2645 48.2282C52.6421 48.2732 52.9191 48.3841 53.0958 48.558C53.2726 48.729 53.3626 48.9328 53.3626 49.1697C53.3626 49.5774 53.075 49.9942 52.4966 50.414C51.9215 50.8337 51.1075 51.1155 50.0578 51.2625L50.2657 50.7408C50.8858 50.6299 51.3846 50.4319 51.7622 50.1501C52.0254 49.9552 52.1571 49.7334 52.1571 49.4875C52.1571 49.2987 52.0704 49.1427 51.9008 49.0138C51.731 48.8878 51.5266 48.8249 51.2807 48.8249C51.2391 48.8249 51.1871 48.8279 51.1178 48.8339L52.2195 47.2329ZM62.3275 40.0011C62.9926 40.0011 63.5434 40.2289 63.9833 40.6876C64.4233 41.1434 64.645 41.779 64.645 42.5946C64.645 43.8928 64.1149 45.0621 63.0584 46.0965C62.0019 47.1309 60.8865 47.6466 59.7052 47.6466C58.9813 47.6466 58.3958 47.4426 57.9524 47.0319C57.509 46.6212 57.2874 46.0605 57.2874 45.3529C57.2874 44.1237 57.6927 42.9873 58.5067 41.944C59.5286 40.6487 60.8033 40.0011 62.3275 40.0011ZM61.4614 40.6667C60.8865 40.6667 60.3322 41.0235 59.7952 41.7341C59.2584 42.4446 58.9916 43.4281 58.9916 44.6783C58.9916 45.4399 59.1579 46.0395 59.487 46.4803C59.7294 46.8011 60.055 46.963 60.4604 46.963C61.0251 46.963 61.5411 46.6571 62.0088 46.0485C62.6012 45.26 62.8991 44.2796 62.8991 43.1072C62.8991 42.2288 62.764 41.6021 62.4903 41.2274C62.2167 40.8525 61.8737 40.6667 61.4614 40.6667ZM65.2269 36.9609H65.7881C65.5976 37.5006 65.3204 37.9143 64.9497 38.2022C64.5826 38.49 64.1912 38.6339 63.779 38.6339C63.5676 38.6339 63.3771 38.6159 63.2109 38.5799C63.1207 38.5619 62.8956 38.4749 62.5285 38.319C62.1509 38.1631 61.9084 38.0702 61.8078 38.0402C61.6589 38.0043 61.51 37.9863 61.361 37.9863C61.1774 37.9863 61.0216 38.0312 60.8934 38.1211C60.7652 38.2111 60.6302 38.382 60.4881 38.6339H59.9269C60.0897 38.0522 60.3426 37.6294 60.6855 37.3626C61.0286 37.0958 61.4026 36.9609 61.8009 36.9609C62.1023 36.9609 62.5527 37.0658 63.1589 37.2756C63.727 37.4735 64.1288 37.5725 64.3609 37.5725C64.5791 37.5725 64.7696 37.5125 64.9359 37.3956C65.1022 37.2787 65.1992 37.1347 65.2269 36.9609ZM70.9183 45.182L71.2509 45.5598C69.5951 46.927 68.1783 47.6106 66.9936 47.6106C66.5155 47.6106 66.1484 47.4697 65.8955 47.1909C65.6426 46.909 65.5145 46.4593 65.5145 45.8416C65.5145 44.5913 65.9544 43.3501 66.8341 42.1118C67.8216 40.7056 68.9993 40.0011 70.3745 40.0011C70.8526 40.0011 71.2197 40.106 71.4726 40.3129C71.7255 40.5198 71.8537 40.8046 71.8537 41.1674C71.8537 41.5482 71.7012 41.92 71.3964 42.2887C71.0916 42.6575 70.5477 43.0413 69.7648 43.437C69.37 43.6289 68.5316 43.9768 67.2465 44.4804C67.1876 44.7953 67.1564 45.0951 67.1564 45.383C67.1564 45.7967 67.2327 46.0875 67.385 46.2495C67.5375 46.4143 67.7592 46.4952 68.0501 46.4952C68.3272 46.4952 68.6286 46.4263 68.9612 46.2914C69.4081 46.1115 70.0592 45.7397 70.9183 45.182ZM67.3677 43.9228C68.4554 43.503 69.273 43.0503 69.8202 42.5676C70.1908 42.2288 70.378 41.8929 70.378 41.5602C70.378 41.3113 70.3018 41.1104 70.1493 40.9606C69.997 40.8136 69.7995 40.7386 69.557 40.7386C69.3076 40.7386 69.0652 40.8196 68.8295 40.9845C68.5109 41.2003 68.2441 41.5272 68.0293 41.962C67.7176 42.6035 67.4959 43.2571 67.3677 43.9228ZM77.1085 40.0011C77.7113 40.0011 78.179 40.103 78.5081 40.3069C78.8372 40.5108 79 40.7447 79 41.0085C79 41.1674 78.9307 41.3083 78.7921 41.4253C78.6535 41.5421 78.4872 41.6021 78.2898 41.6021C78.1617 41.6021 78.0509 41.5781 77.9539 41.5272C77.8603 41.4762 77.7252 41.3503 77.5485 41.1523C77.2159 40.7686 76.8903 40.5767 76.5648 40.5767C76.2876 40.5767 76.0417 40.6697 75.8269 40.8526C75.6156 41.0354 75.5081 41.2663 75.5081 41.5392C75.5081 41.779 75.574 42.0129 75.7091 42.2378C75.8442 42.4626 76.1873 42.8254 76.7345 43.3261C77.4827 44.0157 77.8569 44.6693 77.8569 45.29C77.8569 45.9076 77.552 46.4502 76.9422 46.915C76.3327 47.3797 75.5498 47.6106 74.5902 47.6106C73.7831 47.6106 73.1838 47.4697 72.7925 47.1879C72.401 46.9031 72.2034 46.5552 72.2034 46.1414C72.2034 45.9376 72.2762 45.7697 72.4252 45.6348C72.5741 45.4998 72.7543 45.4339 72.9725 45.4339C73.1596 45.4339 73.3224 45.4879 73.4575 45.5958C73.5925 45.7038 73.6583 45.8296 73.6583 45.9765C73.6583 46.0365 73.6549 46.1115 73.6445 46.2044C73.6411 46.2794 73.6375 46.3453 73.6375 46.3963C73.6375 46.5912 73.7311 46.7531 73.9216 46.8881C74.1053 47.023 74.3582 47.0889 74.6769 47.0889C75.0406 47.0889 75.3627 47.035 75.6433 46.927C75.9205 46.8191 76.1353 46.6542 76.2911 46.4353C76.447 46.2164 76.5267 45.9976 76.5267 45.7817C76.5267 45.5718 76.4539 45.3619 76.3084 45.149C76.1595 44.9392 75.8338 44.5913 75.3211 44.1057C74.6145 43.4281 74.2612 42.7745 74.2612 42.1509C74.2612 41.5781 74.528 41.0744 75.0648 40.6457C75.6018 40.217 76.2808 40.0011 77.1085 40.0011Z" fill="#33613D" stroke="#33613D" stroke-width="1.88976" stroke-miterlimit="22.9256"/>
<path d="M9.83306 16.0027L9.68397 16.6637C9.19647 16.7784 8.79266 16.8378 8.47975 16.8378C8.18151 16.8378 7.68664 16.8021 6.9991 16.7349C6.47887 16.6874 6.0168 16.6637 5.60214 16.6637C4.89271 16.6637 4.16146 16.7349 3.40832 16.8734L3.55754 16.2362C4.2742 16.1572 4.79805 15.9949 5.12187 15.7495C5.35832 15.5715 5.55842 15.2667 5.72579 14.8392C5.89309 14.4078 6.27147 12.912 6.86079 10.3436L8.22508 4.20159L8.29786 3.9087C7.87951 3.89296 7.56299 3.88498 7.35198 3.88498C6.03501 3.88498 4.99454 4.04325 4.22325 4.35196C3.45203 4.66067 2.87355 5.10782 2.48433 5.69749C2.09865 6.28321 1.90585 6.91637 1.90585 7.59711C1.90585 7.83855 1.9422 8.05612 2.02227 8.25795C2.07683 8.39645 2.23328 8.62214 2.49156 8.93078C2.73169 9.2157 2.85173 9.48085 2.85173 9.71833C2.85173 9.92807 2.78264 10.1061 2.64071 10.2525C2.49886 10.399 2.32787 10.4742 2.12777 10.4742C1.82946 10.4742 1.58933 10.3159 1.40375 10.0071C1.13463 9.55208 1 8.97427 1 8.26981C1 7.32794 1.26558 6.40986 1.80402 5.52334C2.33879 4.633 3.07727 3.94435 4.01592 3.45753C4.9545 2.97078 6.09319 2.72935 7.43566 2.72935C8.07593 2.72935 9.09458 2.82832 10.4952 3.03015C11.4884 3.16866 12.2124 3.23601 12.6599 3.23601C13.1073 3.23601 13.4238 3.1568 13.6057 2.99457C13.7912 2.83228 13.8858 2.61463 13.8858 2.34553C13.8858 2.29011 13.875 2.1833 13.8531 2.02101C13.8313 1.87452 13.8204 1.77562 13.8204 1.73206C13.8204 1.5224 13.8858 1.34824 14.0132 1.20973C14.1405 1.07123 14.2933 1 14.4716 1C14.6826 1 14.8608 1.08309 14.9991 1.25329C15.1373 1.42343 15.2065 1.653 15.2065 1.93792C15.2065 2.52752 14.9191 3.03411 14.3443 3.45753C13.7658 3.88498 12.8053 4.09472 11.4557 4.09472C10.9717 4.09472 10.4552 4.071 9.90952 4.02744C9.83675 4.30452 9.61482 5.24639 9.23644 6.85312L8.30877 10.866L7.74488 13.3117L7.15917 16.1056C7.63569 16.169 8.0286 16.2007 8.3415 16.2007C8.81809 16.2007 9.31651 16.1333 9.83306 16.0027ZM17.6257 13.7549L17.9787 14.2654C16.236 16.0661 14.7444 16.9644 13.5002 16.9644C12.9945 16.9644 12.6125 16.7784 12.3433 16.4104C12.0778 16.0384 11.9431 15.4408 11.9431 14.6216C11.9431 12.9674 12.4052 11.321 13.3292 9.68268C14.366 7.82266 15.6066 6.8887 17.0509 6.8887C17.5529 6.8887 17.9386 7.02727 18.2078 7.30026C18.4734 7.57728 18.6043 7.95333 18.6043 8.4321C18.6043 8.93473 18.4479 9.42939 18.1277 9.91621C17.8076 10.403 17.2365 10.9095 16.4106 11.4358C15.9995 11.6891 15.1155 12.1482 13.7658 12.813C13.7039 13.2325 13.6712 13.6283 13.6712 14.0081C13.6712 14.5583 13.7512 14.9382 13.9113 15.1559C14.0713 15.3736 14.3042 15.4804 14.6098 15.4804C14.9009 15.4804 15.2209 15.3933 15.5703 15.2152C16.0359 14.9739 16.7235 14.4871 17.6257 13.7549ZM13.8968 12.0729C15.0391 11.515 15.8977 10.9174 16.4761 10.2762C16.8654 9.82514 17.0618 9.38188 17.0618 8.94264C17.0618 8.61014 16.9818 8.34506 16.8217 8.14718C16.6616 7.94931 16.4542 7.85041 16.1959 7.85041C15.9341 7.85041 15.6793 7.96117 15.4284 8.17486C15.0973 8.4638 14.8136 8.89513 14.588 9.4769C14.2605 10.3238 14.0313 11.1904 13.8968 12.0729ZM21.4311 16.6637H19.8412L20.587 13.5452C20.9508 12.0136 21.2673 10.5612 21.5366 9.184C21.6021 8.84367 21.6311 8.634 21.6311 8.54689C21.6311 8.36087 21.5547 8.26981 21.3983 8.26981C21.2928 8.26981 21.1291 8.34901 20.9072 8.50736C20.6889 8.66563 20.2887 9.05743 19.7139 9.68268L19.3828 9.27895C20.0668 8.48357 20.7471 7.88599 21.4238 7.48628C22.1041 7.09053 22.6244 6.8887 22.9882 6.8887C23.1155 6.8887 23.2137 6.92435 23.2901 6.9876C23.3629 7.05495 23.4029 7.13804 23.4029 7.23694C23.4029 7.33987 23.3556 7.60502 23.2647 8.03642L22.8063 10.1141C23.5229 8.88327 24.3342 7.83452 25.2364 6.95993C25.6694 6.54046 26.0296 6.33468 26.3205 6.33468C26.5352 6.33468 26.7134 6.40986 26.8553 6.56023C26.9973 6.71066 27.07 6.88481 27.07 7.08657C27.07 7.29638 27.0008 7.47442 26.859 7.62083C26.7208 7.76732 26.3752 7.94133 25.8221 8.14323C25.2947 8.33715 24.869 8.56666 24.5379 8.83583C24.2069 9.10882 23.8431 9.52039 23.4502 10.0784C23.0573 10.6364 22.7808 11.1192 22.6244 11.5348C22.4679 11.9464 22.2278 12.9081 21.9113 14.4158L21.4311 16.6637ZM27.9759 16.6637H26.386L27.1319 13.5452C27.4956 12.0136 27.8122 10.5612 28.0814 9.184C28.1469 8.84367 28.1759 8.634 28.1759 8.54689C28.1759 8.36087 28.0996 8.26981 27.9431 8.26981C27.8376 8.26981 27.6739 8.34901 27.452 8.50736C27.2337 8.66563 26.8335 9.05743 26.2587 9.68268L25.9276 9.27895C26.6116 8.48357 27.2919 7.88599 27.9685 7.48628C28.6488 7.09053 29.1692 6.8887 29.5329 6.8887C29.6603 6.8887 29.7585 6.92435 29.8349 6.9876C29.9076 7.05495 29.9477 7.13804 29.9477 7.23694C29.9477 7.33987 29.9004 7.60502 29.8094 8.03642L29.351 10.1141C30.0677 8.88327 30.879 7.83452 31.7813 6.95993C32.2142 6.54046 32.5744 6.33468 32.8654 6.33468C33.08 6.33468 33.2583 6.40986 33.4001 6.56023C33.5421 6.71066 33.6148 6.88481 33.6148 7.08657C33.6148 7.29638 33.5457 7.47442 33.4038 7.62083C33.2656 7.76732 32.9199 7.94133 32.367 8.14323C31.8395 8.33715 31.4138 8.56666 31.0827 8.83583C30.7517 9.10882 30.3879 9.52039 29.995 10.0784C29.6021 10.6364 29.3256 11.1192 29.1692 11.5348C29.0128 11.9464 28.7726 12.9081 28.4561 14.4158L27.9759 16.6637ZM39.8176 6.71454L40.5198 6.55232L39.7195 9.48876C39.4029 10.6522 39.1009 11.9978 38.8135 13.5215C38.6572 14.3485 38.5808 14.8828 38.5808 15.1202C38.5808 15.3616 38.668 15.4804 38.8463 15.4804C38.9591 15.4804 39.141 15.4012 39.392 15.239C39.8322 14.9501 40.2542 14.5979 40.658 14.1704L41 14.6216C40.1887 15.425 39.6721 15.9157 39.443 16.0859C38.9882 16.4223 38.5553 16.6755 38.1441 16.8378C37.875 16.9446 37.6094 17 37.3546 17C37.1691 17 37.0309 16.9526 36.94 16.8615C36.8453 16.7665 36.8017 16.632 36.8017 16.454C36.8017 16.3392 36.8308 16.1808 36.8854 15.979L37.3111 14.404C36.6999 15.1994 35.9723 15.884 35.1282 16.454C34.608 16.8101 34.1314 16.9881 33.6985 16.9881C33.2874 16.9881 32.9709 16.8299 32.749 16.5133C32.4507 16.0859 32.3014 15.5318 32.3014 14.8433C32.3014 14.024 32.5052 13.1138 32.9053 12.1087C33.3056 11.1034 33.8439 10.1893 34.5207 9.37002C35.1937 8.55084 35.9067 7.94931 36.6526 7.56146C37.2274 7.26864 37.9659 7.12222 38.8682 7.12222C39.0973 7.12222 39.3265 7.13804 39.563 7.16973L39.8176 6.71454ZM38.497 8.49147C38.1113 8.40443 37.7876 8.36087 37.5256 8.36087C36.8854 8.36087 36.3288 8.5548 35.8522 8.93474C35.3756 9.31863 34.9354 10.0071 34.5243 11.0005C34.1169 11.9939 33.9131 12.9832 33.9131 13.9726C33.9131 14.4989 33.9932 14.8788 34.1569 15.1084C34.3206 15.3419 34.5352 15.4567 34.7972 15.4567C35.2883 15.4567 35.8121 15.1717 36.376 14.5939C36.9363 14.0201 37.3474 13.189 37.6094 12.1087L38.497 8.49147Z" fill="#EE4137" stroke="#EE4137" stroke-width="1.88976" stroke-miterlimit="22.9256" stroke-linejoin="round"/>
<path d="M58.7824 20.9127H58.1617C58.2509 20.1039 58.2955 19.4923 58.2955 19.0741C58.2955 18.4822 58.1292 18.0127 57.8006 17.6695C57.4718 17.3262 57.0256 17.1565 56.4616 17.1565C55.5934 17.1565 54.8306 17.4642 54.1814 18.0758C53.5323 18.6874 53.2077 19.374 53.2077 20.1394C53.2077 20.5458 53.2969 20.9167 53.4755 21.2482C53.6499 21.5796 54.0475 22.0412 54.6561 22.637C55.7719 23.6984 56.5062 24.5309 56.8552 25.1307C57.2042 25.7343 57.3786 26.3182 57.3786 26.8904C57.3786 27.7308 57.1149 28.5397 56.5874 29.317C56.06 30.0942 55.2851 30.7374 54.2586 31.2424C53.2321 31.7475 52.1487 32 51.0087 32C49.8808 32 48.9313 31.712 48.1604 31.1438C47.3895 30.5717 47 29.9719 47 29.3406C47 29.0014 47.1014 28.7212 47.3043 28.4963C47.5071 28.2714 47.7384 28.1609 47.9982 28.1609C48.27 28.1609 48.4932 28.2634 48.6635 28.4726C48.7771 28.5949 48.8867 28.8751 49.0002 29.3051C49.1261 29.8299 49.2803 30.2086 49.4628 30.4454C49.6453 30.6782 49.897 30.8715 50.2174 31.0215C50.538 31.1714 50.887 31.2464 51.2683 31.2464C52.4003 31.2464 53.3943 30.8755 54.2423 30.1298C55.0862 29.388 55.5122 28.5633 55.5122 27.6638C55.5122 27.356 55.4595 27.0482 55.3499 26.7444C55.2444 26.4406 55.0497 26.0934 54.7616 25.7107C54.5669 25.4463 54.1246 24.9847 53.443 24.3218C52.7696 23.6747 52.3475 23.2328 52.173 22.992C51.9256 22.6449 51.743 22.2977 51.6254 21.9466C51.5077 21.5954 51.4468 21.2482 51.4468 20.901C51.4468 20.1987 51.6902 19.4962 52.173 18.7861C52.6559 18.0758 53.2848 17.5116 54.0557 17.0934C54.8306 16.6713 55.7069 16.4621 56.6889 16.4621C57.1797 16.4621 57.7884 16.537 58.5065 16.683C58.9204 16.758 59.2774 16.8171 59.5777 16.8567C59.4031 17.3577 59.2694 17.8272 59.1719 18.2732C59.0785 18.715 58.9488 19.5949 58.7824 20.9127ZM65.7124 20.5656C66.4873 20.5656 67.1324 20.8654 67.6478 21.4691C68.163 22.0688 68.4226 22.9053 68.4226 23.9746C68.4226 25.6869 67.8059 27.2219 66.5684 28.5831C65.3309 29.9443 64.0244 30.623 62.645 30.623C61.7971 30.623 61.1154 30.3546 60.596 29.8141C60.0767 29.2736 59.8171 28.5397 59.8171 27.6046C59.8171 25.9868 60.2918 24.4915 61.2411 23.1223C62.4381 21.4178 63.9271 20.5656 65.7124 20.5656ZM64.7021 21.4336C64.0285 21.4336 63.3753 21.9031 62.7464 22.8382C62.1175 23.7733 61.8011 25.0675 61.8011 26.7168C61.8011 27.719 61.9958 28.5081 62.3853 29.0842C62.6694 29.5103 63.0508 29.7195 63.5255 29.7195C64.1909 29.7195 64.7954 29.3209 65.3431 28.52C66.041 27.4783 66.3899 26.1881 66.3899 24.6454C66.3899 23.4892 66.2277 22.6647 65.907 22.1714C65.5865 21.6782 65.1849 21.4336 64.7021 21.4336ZM74.4964 27.502L74.8981 27.9162C74.2813 28.5949 73.5511 29.2144 72.7071 29.7747C71.8632 30.331 71.1653 30.6111 70.6176 30.6111C70.3742 30.6111 70.1713 30.5204 70.0131 30.3389C69.8549 30.1574 69.7738 29.9088 69.7738 29.5932C69.7738 28.9776 70.0212 27.6992 70.5121 25.758L71.7943 20.6799C72.2649 18.8492 72.6543 17.6181 72.975 16.9947C73.4658 16.0478 74.1596 15.31 75.0604 14.7852C75.957 14.2604 76.9065 14 77.9045 14C78.2453 14 78.5131 14.0789 78.7079 14.2367C78.9026 14.3946 79 14.5879 79 14.8088C79 15.0575 78.9026 15.2587 78.7161 15.4165C78.5253 15.5743 78.2453 15.6532 77.8802 15.6532C77.6449 15.6532 77.308 15.6138 76.8699 15.5387C76.4926 15.4757 76.1396 15.4441 75.8151 15.4441C75.4905 15.4441 75.2429 15.5112 75.0766 15.6414C74.8453 15.8269 74.6384 16.2174 74.4517 16.8093C74.2652 17.4011 73.9649 18.573 73.5429 20.3248L72.3663 25.1662C71.7821 27.5927 71.4859 28.8632 71.4859 28.9698C71.4859 29.2184 71.5792 29.3406 71.7618 29.3406C71.9361 29.3406 72.1878 29.2381 72.5205 29.0408C73.1778 28.6383 73.835 28.1254 74.4964 27.502Z" fill="#EE4137" stroke="#EE4137" stroke-width="1.88976" stroke-miterlimit="22.9256" stroke-linejoin="round"/>
<path d="M35.622 25.3953C36.0947 25.1552 36.4654 24.8629 36.7322 24.5183C36.9991 24.1738 37.1315 23.8146 37.1315 23.445C37.1315 23.1025 37.05 22.8374 36.8891 22.6494C36.7282 22.4614 36.502 22.3676 36.2067 22.3676C35.8929 22.3676 35.6485 22.4699 35.4754 22.6766C35.3022 22.8833 35.2166 23.1756 35.2166 23.5536C35.2166 23.8125 35.2512 24.0945 35.3185 24.4014C35.3858 24.7104 35.4876 25.0403 35.622 25.3953ZM36.72 29.4714C36.2535 28.9034 35.8583 28.3564 35.5303 27.828C35.2024 27.2998 34.9375 26.7861 34.74 26.2891C34.2348 26.5418 33.8558 26.8341 33.6032 27.1682C33.3506 27.5002 33.2243 27.8698 33.2243 28.277C33.2243 28.845 33.3995 29.3232 33.752 29.7116C34.1044 30.1021 34.5342 30.2963 35.0435 30.2963C35.3063 30.2963 35.5874 30.2232 35.8848 30.077C36.1822 29.9288 36.4613 29.7282 36.72 29.4714ZM36.9645 29.7575C36.5632 30.1626 36.1292 30.4696 35.6628 30.6825C35.1983 30.8934 34.7236 31 34.2368 31C33.5645 31 33.0246 30.81 32.6152 30.4278C32.2058 30.0457 32 29.5445 32 28.9202C32 28.3292 32.2099 27.7905 32.6275 27.3081C33.0451 26.8257 33.6989 26.3622 34.5892 25.9216C34.4507 25.5477 34.3488 25.2137 34.2857 24.9255C34.2225 24.6353 34.1899 24.3617 34.1899 24.1049C34.1899 23.5014 34.3814 23.0002 34.7624 22.5993C35.1454 22.2005 35.6261 22 36.2067 22C36.6955 22 37.0745 22.1232 37.3434 22.3676C37.6123 22.6119 37.7467 22.9585 37.7467 23.4074C37.7467 23.8689 37.5939 24.2802 37.2904 24.6436C36.9848 25.0069 36.4817 25.3724 35.7768 25.7378C35.9928 26.1785 36.2433 26.6295 36.5326 27.0909C36.8198 27.5524 37.1397 28.0139 37.4901 28.4796C37.8608 27.9826 38.146 27.5169 38.3456 27.0826C38.5473 26.6483 38.6491 26.2808 38.6491 25.9843C38.6491 25.8088 38.5921 25.6773 38.48 25.5916C38.3701 25.506 38.1867 25.4538 37.9321 25.4329V25.1698H40.4092V25.4329C39.9997 25.4413 39.6127 25.7608 39.2501 26.3935L39.2216 26.4416C39.1808 26.5167 39.1136 26.642 39.0179 26.8216C38.588 27.6297 38.1644 28.2937 37.7467 28.8158C38.1052 29.223 38.4577 29.5383 38.806 29.7596C39.1543 29.983 39.466 30.0938 39.741 30.0938C39.959 30.0938 40.1464 30.0499 40.3053 29.9601C40.4622 29.8703 40.6435 29.6991 40.8513 29.4464L41 29.6427C40.6618 30.1313 40.342 30.48 40.0385 30.6888C39.737 30.8955 39.4049 31 39.0423 31C38.7388 31 38.4149 30.8955 38.0686 30.6888C37.7223 30.48 37.3536 30.1689 36.9645 29.7575Z" fill="#EE4137" stroke="#EE4137" stroke-width="1.88976" stroke-miterlimit="22.9256" stroke-linejoin="round"/>
</svg>
