<?xml version="1.0" encoding="UTF-8"?>
<!DOCTYPE svg PUBLIC "-//W3C//DTD SVG 1.1//EN" "http://www.w3.org/Graphics/SVG/1.1/DTD/svg11.dtd">
<!-- Creator: CorelDRAW -->
<svg xmlns="http://www.w3.org/2000/svg" xml:space="preserve" width="210mm" height="297mm" version="1.1" style="shape-rendering:geometricPrecision; text-rendering:geometricPrecision; image-rendering:optimizeQuality; fill-rule:evenodd; clip-rule:evenodd"
viewBox="0 0 21000 29700"
 xmlns:xlink="http://www.w3.org/1999/xlink"
 xmlns:xodm="http://www.corel.com/coreldraw/odm/2003">
 <defs>
  <style type="text/css">
   <![CDATA[
    .str2 {stroke:#373435;stroke-width:141.11;stroke-miterlimit:22.9256}
    .str1 {stroke:#EE4137;stroke-width:141.11;stroke-miterlimit:22.9256}
    .str3 {stroke:#33613D;stroke-width:141.11;stroke-miterlimit:22.9256}
    .str5 {stroke:#33613D;stroke-width:50;stroke-miterlimit:22.9256}
    .str4 {stroke:#EE4137;stroke-width:50;stroke-linejoin:round;stroke-miterlimit:22.9256}
    .str6 {stroke:#EE4137;stroke-width:141.11;stroke-linecap:round;stroke-miterlimit:22.9256}
    .str0 {stroke:#33613D;stroke-width:141.11;stroke-linecap:round;stroke-miterlimit:22.9256}
    .fil0 {fill:none}
    .fil1 {fill:#EE4137}
    .fil5 {fill:#33613D}
    .fil6 {fill:white}
    .fil3 {fill:#EE4137;fill-rule:nonzero}
    .fil4 {fill:#33613D;fill-rule:nonzero}
    .fil2 {fill:#EE4137;fill-rule:nonzero}
   ]]>
  </style>
 </defs>
 <g id="Layer_x0020_1">
  <metadata id="CorelCorpID_0Corel-Layer"/>
  <path class="fil0 str0" d="M12805.46 12901.05c-193.32,-31.89 -386.65,-63.79 -526.73,-88.69 -140.07,-24.89 -226.9,-42.79 -386.26,-89.8 -159.35,-47.01 -391.22,-123.14 -673.9,-231.23 -282.68,-108.1 -616.17,-248.16 -868.17,-378.39 -252,-130.23 -422.52,-250.63 -719.36,-435.45 -296.84,-184.82 -720.01,-434.05 -1096.85,-587.1 -376.84,-153.04 -707.36,-209.89 -989.37,-238.82 -282.01,-28.93 -515.52,-29.93 -753.38,-15.13 -237.85,14.79 -480.05,45.38 -740.82,119.51 -260.77,74.13 -540.12,191.8 -805.55,349.91 -265.43,158.11 -516.94,356.67 -744.62,587 -227.68,230.32 -431.53,492.42 -582.44,753.2 -150.9,260.77 -248.86,520.22 -312.39,833.95 -63.54,313.72 -92.66,681.72 -77.21,995.14 15.45,313.42 75.47,572.26 145.96,806.15 70.5,233.9 151.46,442.85 265.73,647.01 114.28,204.15 261.86,403.52 453.47,606.46 191.6,202.94 427.22,409.44 731.68,594.76 304.46,185.32 677.75,349.47 1052.36,446.1 374.62,96.63 750.56,125.75 1074.87,119.13 324.31,-6.62 597,-48.98 874.98,-124.43 277.98,-75.45 561.26,-184 823.36,-317.7 262.1,-133.69 503.02,-292.54 717.46,-497.72 214.44,-205.17 402.41,-456.68 569.2,-738.64 166.79,-281.95 312.4,-594.35 392.95,-884.54 80.54,-290.18 96.03,-558.15 96.03,-805.69 0,-247.53 -15.49,-474.64 -23.23,-588.19 -7.74,-113.55 -7.74,-113.55 -7.74,-113.55 0,0 0,0 0,0"/>
  <path class="fil0 str1" d="M13341.63 6335.49c1561.56,0 2827.47,1173.45 2827.47,2620.99 0,1447.52 -1265.91,2620.97 -2827.47,2620.97 -1561.57,0 -2827.48,-1173.45 -2827.48,-2620.97 0,-1447.54 1265.91,-2620.99 2827.48,-2620.99z"/>
  <polyline class="fil0 str1" points="12865.47,6372.5 12893.84,7405.61 12893.84,7981.43 12867.21,8521.56 12791.75,9085.46 12593.19,9708.94 12350.95,10205.34 12188.13,10479.35 12009.42,10721.59 11842.63,10920.15 11638.04,11048.48 "/>
  <polyline class="fil0 str1" points="12872.9,6643.36 13123.64,6665.18 13363.89,6679.08 13618.06,6663.19 13971.49,6555.97 14190.77,6455.74 "/>
  <polyline class="fil0 str1" points="13117.68,6343.6 13314.24,6381.24 13520.74,6393.15 13663.71,6393.15 13743.34,6361.74 "/>
  <polyline class="fil0 str1" points="12880.59,6923.33 13163.32,6937.2 13457.19,6937.2 13866.22,6927.27 14052.87,6881.6 14352.7,6782.33 14563.16,6692.97 14653.22,6633.94 "/>
  <polyline class="fil0 str1" points="12888,7193.09 13117.64,7207.22 13365.84,7238.99 13608.08,7254.88 13963.51,7244.95 14289.14,7177.44 14692.21,7048.38 14940.41,6931.22 15057.24,6872.93 "/>
  <polyline class="fil0 str1" points="14490.67,7112.91 14255.37,7282.66 13975.39,7439.53 13747.05,7614.26 13614.01,7719.5 13433.32,7884.3 13235.75,8081.87 12983.57,8334.04 12870.89,8446.73 "/>
  <polyline class="fil0 str1" points="13536.42,7250.19 13367.88,7371.42 13199.27,7519.97 13067.9,7680.34 12893.84,7854.4 "/>
  <polyline class="fil0 str1" points="15081.14,6890.06 14956.15,7115.98 14837.02,7401.9 14658.32,7806.97 14503.44,8223.94 14352.53,8684.6 14213.54,9236.59 14157.95,9673.42 14082.5,10102.32 14042.78,10610.62 13984.36,11509.44 "/>
  <polyline class="fil0 str1" points="15244.12,7017.53 15138.83,7191.45 15019.7,7513.11 14880.71,7910.24 14729.8,8402.67 14618.59,8831.55 14532.75,9280.29 14467.7,9752.88 14420.04,10253.26 14388.28,10825.1 14368.42,11198.39 14368.42,11399.28 "/>
  <line class="fil0 str2" x1="14757.12" y1="11225.87" x2="14759.24" y2= "11224.72" />
  <polyline class="fil0 str1" points="14755.98,11224.72 14733.69,10918.41 14785.32,10283.02 14860.78,9596 15011.68,8809.7 15257.89,8051.21 15544.65,7313.4 "/>
  <polyline class="fil0 str1" points="15823.59,7699.93 15690.75,7891.89 15579.56,8261.65 15408.8,8754.08 15313.5,9143.28 15226.12,9591.99 15182.44,10128.11 15126.84,10815.12 15126.84,10989.08 "/>
  <polyline class="fil0 str1" points="15474.12,10677.57 15474.12,10314.75 15523.96,9881.89 15595.44,9464.92 15682.81,9087.65 15905.19,8547.57 16063.25,8243.58 "/>
  <polyline class="fil0 str1" points="16166.08,8834.15 16091.84,9095.59 16008.45,9393.43 15936.96,9695.24 15897.25,9921.6 15907.21,10059.62 "/>
  <polyline class="fil0 str1" points="12514.52,6449.42 12514.52,6732.84 12561.46,7098.19 12561.46,7535.02 12561.46,8241.9 12513.8,8702.56 12402.61,9210.86 12227.88,9679.46 12013.43,10124.23 11719.57,10553.13 11481.29,10791.4 11405.82,10866.86 "/>
  <polyline class="fil0 str1" points="11169.85,10634.86 11401.86,10441.95 11691.76,10013.05 11934,9500.78 12100.79,8972.6 12168.3,8468.26 12196.1,8019.52 12196.1,7487.38 12196.1,6851.99 12172.05,6569.53 "/>
  <polyline class="fil0 str1" points="11908.46,6696.66 11936.26,7205.42 11936.26,7348.38 11937.97,7632.33 11930.02,8442.45 11844.64,8795.92 11709.62,9308.2 11526.95,9697.38 11324.41,10066.7 11088.12,10302.98 10970.9,10385.37 "/>
  <polyline class="fil0 str1" points="11578.78,6907.14 11610.3,7290.51 11610.3,7704.98 11610.3,8212.14 11566.62,8509.97 11491.17,8883.27 11364.08,9204.94 11185.38,9550.43 10986.83,9824.44 10877.61,9933.65 10745.03,9995.47 "/>
  <polyline class="fil0 str1" points="10606.21,9622.34 10764.43,9546.46 10978.88,9228.77 11145.67,8847.53 11237.01,8513.95 11276.72,8041.37 11276.72,7166.01 "/>
  <polyline class="fil0 str1" points="10937.79,7575.83 10937.79,8148.6 10912.84,8365.54 10812.09,8637.05 10696.92,8831.64 10629.42,8934.89 10514.44,8994.51 "/>
  <polyline class="fil0 str1" points="12836.19,9041.02 13265.09,8612.13 13507.32,8369.89 13790.46,8176.47 14203.46,7898.49 14718.63,7670.27 "/>
  <polyline class="fil0 str1" points="11865.66,11192.45 12126.51,10803.47 12388.62,10426.21 12698.37,9951.64 13170.94,9367.88 13637.55,8901.27 14169.7,8470.39 14503.44,8238.07 "/>
  <polyline class="fil0 str1" points="14314.71,8834.79 13969.22,9082.79 13575.6,9400.09 13250.36,9725.31 12944.58,10116.46 12599.09,10589.03 12321.1,11041.75 12130.49,11325.5 "/>
  <polyline class="fil0 str1" points="12520.55,11465.23 12698.36,11137.05 13051.8,10596.98 13321.84,10219.71 13742.78,9798.77 14064.46,9520.79 14185.74,9455.01 "/>
  <polyline class="fil0 str1" points="14089.62,10061.82 13846.01,10215.75 13520.37,10505.65 13158.99,10958.37 12924.7,11355.48 12831.94,11534.98 "/>
  <polyline class="fil0 str1" points="13175.14,11572.98 13341.67,11260.18 13564.06,10898.8 13905.58,10604.93 14054.89,10455.63 "/>
  <polyline class="fil0 str1" points="13520.97,11572.26 13619.65,11379.31 13762.61,11236.35 13927.41,11071.55 14015.3,11033.46 "/>
  <path class="fil1 str1" d="M13459.4 14730.26c105.27,0 190.62,99.57 190.62,222.38 0,122.82 -85.35,222.38 -190.62,222.38 -105.28,0 -190.62,-99.56 -190.62,-222.38 0,-122.81 85.34,-222.38 190.62,-222.38z"/>
  <path class="fil1 str1" d="M14936.67 14007.48c105.27,0 190.62,99.57 190.62,222.38 0,122.82 -85.35,222.38 -190.62,222.38 -105.28,0 -190.62,-99.56 -190.62,-222.38 0,-122.81 85.34,-222.38 190.62,-222.38z"/>
  <path class="fil1 str1" d="M16676.06 13832.75c105.27,0 190.62,99.56 190.62,222.38 0,122.82 -85.35,222.38 -190.62,222.38 -105.28,0 -190.62,-99.56 -190.62,-222.38 0,-122.82 85.34,-222.38 190.62,-222.38z"/>
  <path class="fil1 str1" d="M17517.95 12419c105.28,0 190.62,99.57 190.62,222.38 0,122.82 -85.34,222.39 -190.62,222.39 -105.27,0 -190.62,-99.57 -190.62,-222.39 0,-122.81 85.35,-222.38 190.62,-222.38z"/>
  <path class="fil1 str1" d="M18836.38 11561.23c105.28,0 190.62,99.57 190.62,222.38 0,122.82 -85.34,222.38 -190.62,222.38 -105.27,0 -190.62,-99.56 -190.62,-222.38 0,-122.81 85.35,-222.38 190.62,-222.38z"/>
  <path class="fil1 str1" d="M18709.31 10274.58c105.27,0 190.62,99.57 190.62,222.38 0,122.82 -85.35,222.38 -190.62,222.38 -105.28,0 -190.62,-99.56 -190.62,-222.38 0,-122.81 85.34,-222.38 190.62,-222.38z"/>
  <path class="fil1 str1" d="M19471.77 8749.65c105.28,0 190.62,99.56 190.62,222.38 0,122.82 -85.34,222.38 -190.62,222.38 -105.27,0 -190.61,-99.56 -190.61,-222.38 0,-122.82 85.34,-222.38 190.61,-222.38z"/>
  <path class="fil1 str1" d="M18677.54 7320.03c105.27,0 190.61,99.56 190.61,222.38 0,122.81 -85.34,222.38 -190.61,222.38 -105.28,0 -190.62,-99.57 -190.62,-222.38 0,-122.82 85.34,-222.38 190.62,-222.38z"/>
  <path class="fil1 str1" d="M18598.12 5795.09c105.27,0 190.62,99.57 190.62,222.38 0,122.82 -85.35,222.38 -190.62,222.38 -105.28,0 -190.62,-99.56 -190.62,-222.38 0,-122.81 85.34,-222.38 190.62,-222.38z"/>
  <path class="fil1 str1" d="M17343.23 5064.4c105.27,0 190.62,99.56 190.62,222.38 0,122.81 -85.35,222.38 -190.62,222.38 -105.28,0 -190.62,-99.57 -190.62,-222.38 0,-122.82 85.34,-222.38 190.62,-222.38z"/>
  <path class="fil1 str1" d="M16580.76 3714.2c105.28,0 190.62,99.56 190.62,222.38 0,122.81 -85.34,222.38 -190.62,222.38 -105.27,0 -190.62,-99.57 -190.62,-222.38 0,-122.82 85.35,-222.38 190.62,-222.38z"/>
  <path class="fil1 str1" d="M15024.06 3603c105.28,0 190.62,99.57 190.62,222.39 0,122.81 -85.34,222.38 -190.62,222.38 -105.27,0 -190.61,-99.57 -190.61,-222.38 0,-122.82 85.34,-222.39 190.61,-222.39z"/>
  <path class="fil1 str1" d="M13657.99 2761.12c105.27,0 190.62,99.56 190.62,222.38 0,122.82 -85.35,222.38 -190.62,222.38 -105.28,0 -190.62,-99.56 -190.62,-222.38 0,-122.82 85.34,-222.38 190.62,-222.38z"/>
  <path class="fil1 str1" d="M12291.91 3444.17c105.27,0 190.62,99.56 190.62,222.38 0,122.81 -85.35,222.38 -190.62,222.38 -105.27,0 -190.62,-99.57 -190.62,-222.38 0,-122.82 85.35,-222.38 190.62,-222.38z"/>
  <path class="fil1 str2" d="M9466.96 9922.16c86.74,0 157.06,74.54 157.06,166.5 0,91.95 -70.32,166.5 -157.06,166.5 -86.75,0 -157.07,-74.55 -157.07,-166.5 0,-91.96 70.32,-166.5 157.07,-166.5z"/>
  <path class="fil0 str3" d="M7113.5 11750.59c1498.17,0 2712.69,1130.48 2712.69,2524.98 0,1394.51 -1214.52,2524.99 -2712.69,2524.99 -1498.18,0 -2712.7,-1130.48 -2712.7,-2524.99 0,-1394.5 1214.52,-2524.98 2712.7,-2524.98z"/>
  <line class="fil0 str1" x1="12336.1" y1="3882.92" x2="12518.77" y2= "5044.31" />
  <line class="fil0 str1" x1="18496.17" y1="7611.07" x2="17406.71" y2= "8064.82" />
  <line class="fil0 str1" x1="19281.16" y1="8972.03" x2="17517.9" y2= "8972.03" />
  <line class="fil0 str1" x1="18527.47" y1="10430.07" x2="17470.25" y2= "9990.85" />
  <line class="fil0 str1" x1="18657.94" y1="11705.23" x2="17104.91" y2= "10904.23" />
  <line class="fil0 str1" x1="17362.8" y1="12512.17" x2="16477.46" y2= "11785.84" />
  <line class="fil0 str1" x1="16572.22" y1="13868.61" x2="15683.19" y2= "12405.38" />
  <line class="fil0 str1" x1="14883.26" y1="14016.32" x2="14650.69" y2= "12858.09" />
  <line class="fil0 str1" x1="13496.22" y1="14767.08" x2="13496.22" y2= "13016.94" />
  <path class="fil2 str4" d="M4433 6904.13l-21.45 95.3c-70.14,16.54 -128.24,25.1 -173.26,25.1 -42.91,0 -114.11,-5.14 -213.03,-14.83 -74.85,-6.85 -141.33,-10.27 -200.99,-10.27 -102.07,0 -207.28,10.27 -315.64,30.23l21.47 -91.86c103.11,-11.4 178.48,-34.8 225.07,-70.18 34.02,-25.67 62.81,-69.61 86.89,-131.24 24.07,-62.2 78.51,-277.88 163.3,-648.19l196.29 -885.56 10.47 -42.23c-60.19,-2.27 -105.73,-3.42 -136.09,-3.42 -189.48,0 -339.18,22.82 -450.15,67.33 -110.96,44.51 -194.19,108.98 -250.19,194 -55.49,84.45 -83.23,175.74 -83.23,273.89 0,34.81 5.23,66.18 16.75,95.28 7.85,19.97 30.36,52.51 67.52,97.01 34.55,41.08 51.82,79.31 51.82,113.55 0,30.24 -9.94,55.91 -30.36,77.02 -20.41,21.12 -45.01,31.96 -73.8,31.96 -42.92,0 -77.47,-22.82 -104.17,-67.34 -38.72,-65.61 -58.09,-148.92 -58.09,-250.49 0,-135.8 38.21,-268.17 115.68,-395.99 76.94,-128.37 183.19,-227.66 318.24,-297.85 135.04,-70.18 298.87,-104.99 492.02,-104.99 92.12,0 238.68,14.27 440.2,43.37 142.9,19.97 247.06,29.68 311.44,29.68 64.38,0 109.92,-11.42 136.09,-34.81 26.69,-23.4 40.3,-54.78 40.3,-93.58 0,-7.99 -1.56,-23.39 -4.71,-46.79 -3.14,-21.12 -4.71,-35.38 -4.71,-41.66 0,-30.23 9.42,-55.34 27.74,-75.31 18.32,-19.97 40.31,-30.24 65.95,-30.24 30.36,0 56.01,11.98 75.9,36.52 19.89,24.53 29.84,57.63 29.84,98.71 0,85.01 -41.35,158.05 -124.05,219.1 -83.23,61.63 -221.42,91.87 -415.6,91.87 -69.63,0 -143.95,-3.42 -222.46,-9.7 -10.47,39.95 -42.4,175.75 -96.84,407.41l-133.47 578.58 -81.13 352.62 -84.27 402.84c68.56,9.14 125.09,13.7 170.11,13.7 68.57,0 140.28,-9.71 214.6,-28.54zm1121.18 -324.09l50.78 73.6c-250.73,259.63 -465.33,389.15 -644.34,389.15 -72.76,0 -127.72,-26.82 -166.46,-79.88 -38.2,-53.64 -57.57,-139.8 -57.57,-257.91 0,-238.51 66.48,-475.88 199.42,-712.1 149.18,-268.18 327.67,-402.84 535.47,-402.84 72.23,0 127.72,19.98 166.45,59.34 38.21,39.94 57.05,94.16 57.05,163.19 0,72.47 -22.5,143.79 -68.57,213.98 -46.06,70.18 -128.23,143.21 -247.05,219.1 -59.15,36.52 -186.34,102.71 -380.53,198.56 -8.91,60.49 -13.61,117.55 -13.61,172.32 0,79.32 11.51,134.1 34.54,165.48 23.03,31.39 56.53,46.79 100.5,46.79 41.88,0 87.93,-12.56 138.19,-38.23 66.99,-34.8 165.92,-104.99 295.73,-210.55zm-536.51 -242.51c164.35,-80.45 287.89,-166.61 371.11,-259.05 56.01,-65.04 84.27,-128.95 84.27,-192.28 0,-47.94 -11.52,-86.16 -34.55,-114.69 -23.03,-28.53 -52.87,-42.79 -90.03,-42.79 -37.68,0 -74.33,15.97 -110.43,46.78 -47.64,41.66 -88.46,103.85 -120.92,187.73 -47.11,122.1 -80.09,247.06 -99.45,374.3zm1084.01 661.9l-228.74 0 107.3 -449.63c52.34,-220.83 97.88,-430.23 136.62,-628.8 9.43,-49.07 13.6,-79.3 13.6,-91.86 0,-26.82 -10.99,-39.95 -33.49,-39.95 -15.18,0 -38.73,11.42 -70.66,34.25 -31.41,22.82 -88.99,79.31 -171.69,169.46l-47.63 -58.21c98.41,-114.68 196.29,-200.84 293.64,-258.47 97.88,-57.06 172.74,-86.16 225.08,-86.16 18.32,0 32.45,5.14 43.44,14.26 10.47,9.71 16.23,21.69 16.23,35.95 0,14.84 -6.8,53.07 -19.89,115.27l-65.95 299.56c103.11,-177.46 219.84,-328.67 349.64,-454.77 62.29,-60.48 114.12,-90.15 155.98,-90.15 30.89,0 56.53,10.84 76.94,32.52 20.43,21.69 30.89,46.8 30.89,75.89 0,30.25 -9.95,55.92 -30.36,77.03 -19.88,21.12 -69.61,46.21 -149.18,75.32 -75.89,27.96 -137.13,61.05 -184.77,99.86 -47.62,39.36 -99.96,98.7 -156.49,179.15 -56.53,80.46 -96.31,150.07 -118.82,209.99 -22.51,59.34 -57.06,198 -102.6,415.39l-69.09 324.1zm941.65 0l-228.75 0 107.31 -449.63c52.34,-220.83 97.88,-430.23 136.62,-628.8 9.42,-49.07 13.6,-79.3 13.6,-91.86 0,-26.82 -10.99,-39.95 -33.5,-39.95 -15.18,0 -38.73,11.42 -70.66,34.25 -31.41,22.82 -88.98,79.31 -171.68,169.46l-47.64 -58.21c98.41,-114.68 196.29,-200.84 293.64,-258.47 97.88,-57.06 172.74,-86.16 225.08,-86.16 18.32,0 32.46,5.14 43.45,14.26 10.46,9.71 16.22,21.69 16.22,35.95 0,14.84 -6.8,53.07 -19.89,115.27l-65.95 299.56c103.11,-177.46 219.84,-328.67 349.65,-454.77 62.29,-60.48 114.11,-90.15 155.98,-90.15 30.88,0 56.53,10.84 76.94,32.52 20.42,21.69 30.88,46.8 30.88,75.89 0,30.25 -9.94,55.92 -30.36,77.03 -19.88,21.12 -69.61,46.21 -149.17,75.32 -75.89,27.96 -137.14,61.05 -184.77,99.86 -47.63,39.36 -99.97,98.7 -156.5,179.15 -56.53,80.46 -96.31,150.07 -118.82,209.99 -22.5,59.34 -57.05,198 -102.59,415.39l-69.09 324.1zm1703.74 -1434.48l101.03 -23.39 -115.15 423.38c-45.54,167.75 -88.99,361.76 -130.34,581.44 -22.5,119.25 -33.49,196.28 -33.49,230.51 0,34.81 12.55,51.93 38.2,51.93 16.23,0 42.4,-11.41 78.52,-34.81 63.33,-41.65 124.05,-92.43 182.15,-154.06l49.2 65.05c-116.72,115.83 -191.05,186.59 -224.02,211.12 -65.43,48.5 -127.72,85.02 -186.87,108.41 -38.73,15.4 -76.94,23.39 -113.59,23.39 -26.69,0 -46.58,-6.84 -59.66,-19.97 -13.62,-13.69 -19.89,-33.09 -19.89,-58.76 0,-16.55 4.18,-39.38 12.03,-68.48l61.25 -227.09c-87.94,114.69 -192.62,213.4 -314.06,295.57 -74.85,51.35 -143.42,77.02 -205.7,77.02 -59.15,0 -104.69,-22.82 -136.62,-68.46 -42.92,-61.63 -64.39,-141.52 -64.39,-240.79 0,-118.12 29.32,-249.36 86.89,-394.28 57.59,-144.94 135.04,-276.74 232.41,-394.86 96.83,-118.11 199.42,-204.84 306.73,-260.76 82.7,-42.22 188.96,-63.33 318.77,-63.33 32.97,0 65.95,2.28 99.97,6.85l36.63 -65.63zm-190 256.2c-55.49,-12.55 -102.07,-18.83 -139.76,-18.83 -92.12,0 -172.2,27.96 -240.77,82.74 -68.57,55.35 -131.9,154.62 -191.05,297.85 -58.62,143.22 -87.94,285.86 -87.94,428.51 0,75.89 11.52,130.66 35.08,163.76 23.55,33.67 54.43,50.22 92.12,50.22 70.66,0 146.03,-41.08 227.16,-124.4 80.61,-82.73 139.76,-202.55 177.45,-358.32l127.71 -521.53z"/>
  <path class="fil3 str4" d="M5712.55 8556.56l-90.07 0c12.94,-115.77 19.42,-203.32 19.42,-263.18 0,-84.73 -24.13,-151.93 -71.82,-201.06 -47.71,-49.14 -112.46,-73.43 -194.3,-73.43 -125.98,0 -236.67,44.05 -330.87,131.59 -94.19,87.55 -141.29,185.82 -141.29,295.39 0,58.17 12.94,111.26 38.85,158.71 25.31,47.44 83.01,113.51 171.32,198.8 161.91,151.93 268.47,271.1 319.1,356.95 50.65,86.4 75.96,169.99 75.96,251.89 0,120.3 -38.27,236.08 -114.81,347.35 -76.53,111.25 -188.98,203.32 -337.93,275.61 -148.95,72.3 -306.17,108.44 -471.59,108.44 -163.67,0 -301.45,-41.22 -413.3,-122.56 -111.87,-81.89 -168.39,-167.74 -168.39,-258.11 0,-48.56 14.71,-88.67 44.16,-120.86 29.43,-32.19 62.99,-48.01 100.68,-48.01 39.44,0 71.83,14.68 96.55,44.62 16.48,17.51 32.39,57.61 48.86,119.17 18.26,75.11 40.64,129.33 67.12,163.22 26.49,33.32 63,61 109.5,82.46 46.52,21.46 97.16,32.2 152.5,32.2 164.26,0 308.49,-53.1 431.55,-159.83 122.45,-106.19 184.27,-224.23 184.27,-353 0,-44.05 -7.65,-88.11 -23.56,-131.6 -15.3,-43.48 -43.56,-93.18 -85.36,-147.97 -28.25,-37.84 -92.43,-103.92 -191.34,-198.81 -97.72,-92.62 -158.96,-155.88 -184.28,-190.34 -35.91,-49.69 -62.4,-99.39 -79.47,-149.65 -17.08,-50.27 -25.92,-99.97 -25.92,-149.67 0,-100.53 35.33,-201.08 105.39,-302.73 70.06,-101.67 161.32,-182.43 273.18,-242.3 112.45,-60.42 239.61,-90.36 382.1,-90.36 71.23,0 159.55,10.72 263.76,31.62 60.05,10.74 111.86,19.2 155.43,24.86 -25.33,71.72 -44.74,138.93 -58.88,202.76 -13.55,63.24 -32.37,189.19 -56.52,377.83zm1005.59 -49.69c112.45,0 206.06,42.92 280.84,129.33 74.76,85.85 112.44,205.58 112.44,358.65 0,245.1 -89.49,464.82 -269.06,659.67 -179.57,194.84 -369.15,291.99 -569.32,291.99 -123.04,0 -221.95,-38.41 -297.32,-115.78 -75.36,-77.38 -113.03,-182.43 -113.03,-316.28 0,-231.57 68.88,-445.62 206.64,-641.61 173.69,-243.98 389.76,-365.97 648.81,-365.97zm-146.59 124.25c-97.75,0 -192.53,67.21 -283.79,201.06 -91.26,133.85 -137.17,319.11 -137.17,555.19 0,143.46 28.25,256.41 84.77,338.88 41.22,60.99 96.56,90.93 165.45,90.93 96.55,0 184.27,-57.05 263.75,-171.7 101.27,-149.11 151.9,-333.79 151.9,-554.62 0,-165.49 -23.54,-283.52 -70.07,-354.13 -46.51,-70.6 -104.79,-105.61 -174.84,-105.61zm1421.22 868.65l58.29 59.29c-89.5,97.15 -195.46,185.82 -317.93,266.02 -122.45,79.64 -223.72,119.73 -303.2,119.73 -35.32,0 -64.77,-12.98 -87.72,-38.97 -22.96,-25.98 -34.73,-61.56 -34.73,-106.74 0,-88.11 35.9,-271.1 107.14,-548.97l186.05 -726.89c68.3,-262.06 124.8,-438.28 171.33,-527.51 71.23,-135.55 171.9,-241.16 302.61,-316.28 130.1,-75.11 267.88,-112.39 412.71,-112.39 49.45,0 88.31,11.3 116.57,33.88 28.26,22.6 42.39,50.27 42.39,81.9 0,35.59 -14.13,64.39 -41.2,86.98 -27.68,22.59 -68.31,33.88 -121.29,33.88 -34.15,0 -83.03,-5.64 -146.6,-16.38 -54.75,-9.03 -105.97,-13.55 -153.07,-13.55 -47.1,0 -83.02,9.6 -107.15,28.24 -33.57,26.55 -63.59,82.46 -90.68,167.18 -27.07,84.71 -70.64,252.46 -131.88,503.22l-170.73 693c-84.78,347.34 -127.76,529.2 -127.76,544.46 0,35.58 13.55,53.08 40.04,53.08 25.3,0 61.82,-14.68 110.1,-42.92 95.37,-57.61 190.74,-131.03 286.71,-220.26z"/>
  <path class="fil3 str4" d="M3519.48 8386.09c69.21,-33.26 123.49,-73.75 162.56,-121.47 39.08,-47.72 58.46,-97.47 58.46,-148.67 0,-47.43 -11.93,-84.16 -35.49,-110.19 -23.56,-26.04 -56.67,-39.04 -99.92,-39.04 -45.94,0 -81.73,14.17 -107.08,42.8 -25.36,28.63 -37.89,69.12 -37.89,121.48 0,35.86 5.07,74.91 14.92,117.42 9.85,42.8 24.76,88.5 44.44,137.67zm160.78 564.57c-68.31,-78.67 -126.18,-154.44 -174.2,-227.62 -48.02,-73.17 -86.8,-144.32 -115.73,-213.16 -73.97,35 -129.46,75.49 -166.45,121.77 -36.98,45.98 -55.47,97.17 -55.47,153.57 0,78.68 25.65,144.91 77.26,198.7 51.6,54.09 114.53,80.99 189.1,80.99 38.48,0 79.64,-10.12 123.19,-30.37 43.55,-20.53 84.42,-48.31 122.3,-83.88zm35.79 39.63c-58.76,56.11 -122.3,98.63 -190.6,128.12 -68.01,29.21 -137.51,43.97 -208.8,43.97 -98.43,0 -177.48,-26.32 -237.43,-79.25 -59.95,-52.93 -90.08,-122.35 -90.08,-208.82 0,-81.86 30.73,-156.47 91.88,-223.29 61.14,-66.81 156.88,-131.01 287.24,-192.04 -20.29,-51.78 -35.2,-98.05 -44.45,-137.97 -9.25,-40.19 -14.02,-78.09 -14.02,-113.66 0,-83.58 28.04,-153 83.82,-208.53 56.08,-55.24 126.47,-83.01 211.48,-83.01 71.58,0 127.07,17.06 166.44,50.91 39.37,33.84 59.06,81.85 59.06,144.03 0,63.92 -22.38,120.89 -66.82,171.22 -44.74,50.32 -118.41,100.94 -221.62,151.56 31.62,61.03 68.31,123.5 110.66,187.41 42.06,63.92 88.89,127.84 140.2,192.34 54.28,-68.84 96.04,-133.33 125.27,-193.49 29.53,-60.16 44.44,-111.06 44.44,-152.13 0,-24.3 -8.35,-42.52 -24.76,-54.38 -16.1,-11.86 -42.95,-19.09 -80.23,-21.98l0 -36.45 362.71 0 0 36.45c-59.96,1.16 -116.63,45.41 -169.73,133.05l-4.17 6.65c-5.97,10.41 -15.81,27.76 -29.83,52.64 -62.94,111.93 -124.97,203.9 -186.12,276.21 52.49,56.4 104.1,100.07 155.1,130.72 51,30.95 96.64,46.29 136.91,46.29 31.92,0 59.36,-6.08 82.62,-18.51 22.97,-12.44 49.52,-36.16 79.94,-71.16l21.78 27.19c-49.52,67.68 -96.34,115.98 -140.79,144.9 -44.14,28.63 -92.77,43.1 -145.86,43.1 -44.44,0 -91.87,-14.47 -142.57,-43.1 -50.71,-28.92 -104.7,-72.02 -161.67,-128.99z"/>
  <path class="fil4 str5" d="M11732.71 16225.49l-64.96 0c4.16,-59.83 6.25,-107.85 6.25,-144.06 0,-108.26 -24.15,-183.83 -72.05,-226.35 -47.47,-42.9 -107.85,-64.15 -180.73,-64.15 -97.02,0 -198.22,36.99 -302.73,111.39 -104.53,74.4 -194.49,190.12 -269.85,347.57 -75.37,157.45 -112.85,319.24 -112.85,485.35 0,160.99 34.98,284.2 104.94,370.01 69.54,85.81 157.41,128.72 262.75,128.72 142.85,0 274.02,-80.7 393.53,-242.48 12.08,-16.14 24.57,-24.4 37.9,-24.4 10.41,0 19.57,3.14 27.07,9.83 7.08,6.31 10.81,13.78 10.81,22.44 0,20.87 -27.06,61.41 -81.19,122.03 -54.13,60.61 -122.44,111 -204.88,151.15 -82.03,40.55 -163.24,60.62 -242.78,60.62 -96.19,0 -185.31,-23.62 -267.75,-70.85 -82.47,-47.24 -146.18,-114.94 -191.98,-202.33 -45.39,-87.78 -68.3,-191.69 -68.3,-312.54 0,-168.47 46.64,-335.77 139.92,-502.66 93.28,-166.9 209.88,-295.62 349.81,-386.15 139.91,-90.93 276.49,-136.2 410.17,-136.2 47.88,0 95.77,5.12 142.83,14.96 20.4,4.73 104.11,31.1 251.52,79.52 -45.8,131.86 -71.62,268.05 -77.45,408.58zm660.87 -89.74c79.95,0 146.17,29.91 199.05,90.13 52.89,59.84 79.54,143.28 79.54,250.36 0,170.43 -63.72,323.95 -190.72,459.75 -127.02,135.8 -261.1,203.51 -403.11,203.51 -87.02,0 -157.4,-26.78 -210.71,-80.7 -53.3,-53.93 -79.95,-127.54 -79.95,-220.43 0,-161.38 48.72,-310.57 146.59,-447.55 122.84,-170.05 276.08,-255.07 459.31,-255.07zm-104.11 87.38c-69.12,0 -135.75,46.84 -200.3,140.13 -64.54,93.29 -96.61,222.4 -96.61,386.54 0,99.98 19.99,178.71 59.55,236.58 29.14,42.11 68.29,63.37 117.02,63.37 67.87,0 129.92,-40.16 186.14,-120.06 71.21,-103.52 107.02,-232.24 107.02,-386.15 0,-115.33 -16.24,-197.6 -49.14,-246.8 -32.9,-49.21 -74.12,-73.61 -123.68,-73.61zm532.2 186.58l-42.48 -40.15c104.94,-94.08 188.64,-156.66 251.11,-187.37 62.04,-31.1 115.35,-46.44 159.48,-46.44 17.5,0 30.83,3.54 40.82,10.23 9.58,6.69 14.58,14.56 14.58,24.01 0,6.69 -2.09,18.89 -5.84,36.22l-55.38 231.84c82.45,-86.99 186.13,-168.08 311.06,-243.66 66.21,-38.97 120.77,-58.64 163.66,-58.64 31.65,0 56.64,9.44 74.12,28.34 17.91,18.89 27.08,46.44 27.08,81.87 0,24.01 -3.75,50.78 -11.24,80.69 -12.92,49.99 -46.65,159.03 -101.61,326.71 -51.64,156.66 -77.47,260.98 -77.47,312.55 0,16.14 2.51,28.34 7.09,36.21 4.99,8.27 12.07,12.2 20.82,12.2 23.74,0 60.8,-21.65 111.18,-64.95 35.82,-31.09 71.63,-59.83 107.45,-86.21l27.48 42.52c-74.54,77.94 -151.59,140.52 -231.54,188.15 -51.21,30.31 -92.85,45.67 -126.17,45.67 -30.82,0 -54.55,-10.64 -71.63,-31.89 -17.07,-21.25 -25.41,-55.9 -25.41,-103.91 0,-68.5 45.4,-238.54 135.77,-510.94 27.89,-96.83 41.64,-153.12 41.64,-169.26 0,-22.83 -14.99,-34.25 -44.98,-34.25 -32.48,0 -74.54,16.14 -125.76,48.43 -76.62,47.63 -140.33,103.51 -191.56,168.07 -32.47,41.73 -59.96,107.85 -81.62,198.4l-99.1 402.28 -181.56 0c34.14,-115.33 63.7,-225.55 89.12,-330.65l108.26 -438.1c4.16,-17.33 6.25,-29.53 6.25,-37.01 0,-20.07 -8.33,-30.31 -24.58,-30.31 -13.32,0 -32.06,7.88 -56.63,24.02 -50.8,31.48 -98.27,70.06 -142.41,115.33zm1155.57 -198.39l291.5 0c47.89,-192.1 102.86,-334.98 164.49,-429.06 62.04,-93.68 142.42,-167.68 241.53,-222 99.11,-53.92 192.81,-81.09 280.67,-81.09 49.55,0 87.03,9.45 112.02,27.95 25.4,18.5 37.89,40.15 37.89,65.73 0,23.23 -8.33,42.51 -25.4,57.87 -17.07,15.35 -39.57,23.22 -67.04,23.22 -28.74,0 -82.04,-7.87 -161.16,-24.01 -38.73,-7.48 -69.54,-11.41 -91.2,-11.41 -53.72,0 -102.02,31.09 -145.32,93.68 -42.9,62.59 -77.46,147.21 -103.28,253.89l-64.14 245.23 324.81 0 -19.57 82.66 -326.47 0 -191.97 736.48c-59.14,223.58 -154.08,392.84 -284.84,507.78 -130.34,115.34 -271.92,172.8 -424.76,172.8 -51.21,0 -89.94,-9.45 -116.59,-27.94 -26.23,-18.9 -39.56,-41.73 -39.56,-69.28 0,-23.62 9.16,-42.52 27.48,-56.3 18.32,-14.16 44.56,-21.25 78.7,-21.25 17.08,0 42.07,1.97 75.39,5.91 57.04,7.09 111.59,10.62 163.64,10.62 80.38,0 139.09,-18.11 175.32,-53.92 36.65,-35.82 73.29,-123.2 109.93,-262.94l247.37 -941.96 -291.09 0 21.65 -82.66zm1397.53 604.61l39.97 49.6c-199.05,179.49 -369.36,269.24 -511.78,269.24 -57.47,0 -101.61,-18.5 -132.01,-55.1 -30.4,-37.01 -45.8,-96.05 -45.8,-177.14 0,-164.15 52.88,-327.11 158.65,-489.68 118.69,-184.61 260.27,-277.1 425.59,-277.1 57.47,0 101.6,13.77 132.01,40.93 30.4,27.16 45.8,64.56 45.8,112.19 0,49.99 -18.32,98.8 -54.97,147.21 -36.63,48.41 -102.02,98.8 -196.13,150.76 -47.48,25.19 -148.25,70.86 -302.74,136.98 -7.08,41.34 -10.83,80.7 -10.83,118.49 0,54.32 9.16,92.5 27.48,113.76 18.33,21.64 44.98,32.27 79.96,32.27 33.3,0 69.54,-9.05 109.52,-26.76 53.72,-23.62 132,-72.43 235.28,-145.65zm-426.84 -165.32c130.76,-55.11 229.03,-114.55 294.82,-177.92 44.56,-44.48 67.06,-88.57 67.06,-132.26 0,-32.67 -9.17,-59.05 -27.49,-78.72 -18.31,-19.29 -42.06,-29.14 -71.21,-29.14 -29.98,0 -59.12,10.63 -87.45,32.28 -38.3,28.34 -70.37,71.25 -96.19,128.33 -37.48,84.23 -64.13,170.04 -79.54,257.43zm1308.41 207.84l27.48 66.12c-194.89,143.28 -359.37,214.93 -493.47,214.93 -71.21,0 -122.83,-24.02 -155.32,-71.65 -32.07,-47.62 -48.31,-108.25 -48.31,-181.46 0,-121.63 34.15,-246.8 102.87,-375.12 68.29,-128.72 151.57,-227.13 249.02,-296.01 76.62,-53.15 163.23,-79.51 259.43,-79.51 59.97,0 105.78,10.62 136.58,32.27 31.23,21.65 46.65,47.63 46.65,78.33 0,24.01 -8.34,43.3 -24.57,58.26 -16.25,14.96 -39.15,22.44 -68.3,22.44 -28.31,0 -64.96,-12.2 -109.93,-36.61 -46.23,-25.98 -84.96,-38.97 -116.19,-38.97 -39.56,0 -79.54,16.93 -119.1,51.18 -39.14,34.23 -77.03,100.76 -112.85,199.17 -35.81,98.4 -53.71,197.6 -53.71,296.79 0,72.82 14.99,129.5 45.38,169.66 22.08,30.7 52.88,46.05 92.87,46.05 95.36,0 209.47,-51.96 341.47,-155.87zm849.09 0l27.49 66.12c-194.9,143.28 -359.39,214.93 -493.48,214.93 -71.2,0 -122.84,-24.02 -155.32,-71.65 -32.06,-47.62 -48.31,-108.25 -48.31,-181.46 0,-121.63 34.15,-246.8 102.86,-375.12 68.3,-128.72 151.58,-227.13 249.02,-296.01 76.63,-53.15 163.24,-79.51 259.43,-79.51 59.98,0 105.78,10.62 136.59,32.27 31.24,21.65 46.64,47.63 46.64,78.33 0,24.01 -8.33,43.3 -24.56,58.26 -16.25,14.96 -39.15,22.44 -68.3,22.44 -28.31,0 -64.96,-12.2 -109.94,-36.61 -46.22,-25.98 -84.95,-38.97 -116.18,-38.97 -39.56,0 -79.54,16.93 -119.1,51.18 -39.14,34.23 -77.03,100.76 -112.84,199.17 -35.83,98.4 -53.72,197.6 -53.72,296.79 0,72.82 14.99,129.5 45.38,169.66 22.08,30.7 52.89,46.05 92.87,46.05 95.36,0 209.46,-51.96 341.47,-155.87zm-432.25 226.73l79.95 0 -74.54 130.68c45.39,5.9 78.7,20.46 99.94,43.29 21.25,22.45 32.07,49.21 32.07,80.31 0,53.53 -34.57,108.24 -104.1,163.36 -69.14,55.1 -166.99,92.1 -293.18,111.39l24.99 -68.49c74.55,-14.56 134.51,-40.55 179.9,-77.55 31.64,-25.58 47.47,-54.71 47.47,-86.99 0,-24.79 -10.42,-45.26 -30.81,-62.19 -20.41,-16.54 -44.98,-24.8 -74.54,-24.8 -5,0 -11.25,0.39 -19.58,1.18l132.43 -210.19zm1215.12 -949.43c79.95,0 146.17,29.91 199.05,90.13 52.89,59.84 79.55,143.28 79.55,250.36 0,170.43 -63.73,323.95 -190.73,459.75 -127.01,135.8 -261.1,203.51 -403.1,203.51 -87.03,0 -157.41,-26.78 -210.71,-80.7 -53.31,-53.93 -79.95,-127.54 -79.95,-220.43 0,-161.38 48.72,-310.57 146.58,-447.55 122.84,-170.05 276.08,-255.07 459.31,-255.07zm-104.11 87.38c-69.12,0 -135.75,46.84 -200.3,140.13 -64.54,93.29 -96.61,222.4 -96.61,386.54 0,99.98 19.99,178.71 59.55,236.58 29.15,42.11 68.29,63.37 117.02,63.37 67.88,0 129.92,-40.16 186.14,-120.06 71.21,-103.52 107.03,-232.24 107.03,-386.15 0,-115.33 -16.25,-197.6 -49.15,-246.8 -32.89,-49.21 -74.12,-73.61 -123.68,-73.61zm452.66 -486.52l67.46 0c-22.9,70.85 -56.22,125.17 -100.78,162.96 -44.13,37.79 -91.19,56.68 -140.74,56.68 -25.41,0 -48.31,-2.36 -68.29,-7.09 -10.84,-2.36 -37.91,-13.78 -82.04,-34.25 -45.39,-20.47 -74.54,-32.67 -86.63,-36.6 -17.9,-4.72 -35.8,-7.08 -53.71,-7.08 -22.07,0 -40.81,5.9 -56.22,17.7 -15.41,11.82 -31.64,34.25 -48.72,67.32l-67.46 0c19.57,-76.37 49.97,-131.87 91.19,-166.9 41.24,-35.03 86.2,-52.74 134.09,-52.74 36.23,0 90.37,13.77 163.25,41.32 68.29,25.98 116.59,38.98 144.49,38.98 26.23,0 49.14,-7.88 69.13,-23.23 19.99,-15.35 31.65,-34.25 34.98,-57.07zm684.18 1079.32l39.98 49.6c-199.05,179.49 -369.36,269.24 -511.78,269.24 -57.47,0 -101.61,-18.5 -132.01,-55.1 -30.4,-37.01 -45.8,-96.05 -45.8,-177.14 0,-164.15 52.88,-327.11 158.64,-489.68 118.7,-184.61 260.28,-277.1 425.6,-277.1 57.47,0 101.6,13.77 132.01,40.93 30.4,27.16 45.81,64.56 45.81,112.19 0,49.99 -18.33,98.8 -54.98,147.21 -36.64,48.41 -102.02,98.8 -196.13,150.76 -47.47,25.19 -148.25,70.86 -302.74,136.98 -7.08,41.34 -10.83,80.7 -10.83,118.49 0,54.32 9.17,92.5 27.48,113.76 18.33,21.64 44.98,32.27 79.96,32.27 33.31,0 69.54,-9.05 109.52,-26.76 53.72,-23.62 132,-72.43 235.27,-145.65zm-426.83 -165.32c130.76,-55.11 229.04,-114.55 294.83,-177.92 44.55,-44.48 67.05,-88.57 67.05,-132.26 0,-32.67 -9.16,-59.05 -27.49,-78.72 -18.31,-19.29 -42.06,-29.14 -71.21,-29.14 -29.98,0 -59.12,10.63 -87.45,32.28 -38.3,28.34 -70.37,71.25 -96.19,128.33 -37.48,84.23 -64.13,170.04 -79.54,257.43zm1170.98 -514.86c72.46,0 128.68,13.38 168.25,40.14 39.56,26.77 59.13,57.48 59.13,92.11 0,20.87 -8.33,39.36 -24.99,54.72 -16.66,15.34 -36.65,23.22 -60.39,23.22 -15.4,0 -28.72,-3.15 -40.38,-9.84 -11.25,-6.69 -27.49,-23.22 -48.73,-49.21 -39.98,-50.38 -79.12,-75.57 -118.26,-75.57 -33.32,0 -62.88,12.2 -88.7,36.21 -25.4,24.01 -38.32,54.32 -38.32,90.15 0,31.48 7.92,62.19 24.16,91.71 16.24,29.52 57.48,77.15 123.26,142.89 89.95,90.53 134.93,176.34 134.93,257.83 0,81.08 -36.65,152.32 -109.95,213.34 -73.28,61.01 -167.39,91.32 -282.75,91.32 -97.02,0 -169.06,-18.5 -216.11,-55.5 -47.06,-37.39 -70.81,-83.06 -70.81,-137.38 0,-26.76 8.75,-48.81 26.66,-66.52 17.9,-17.72 39.56,-26.37 65.79,-26.37 22.49,0 42.07,7.09 58.31,21.25 16.23,14.18 24.14,30.7 24.14,49.99 0,7.87 -0.41,17.72 -1.66,29.92 -0.41,9.84 -0.84,18.5 -0.84,25.19 0,25.59 11.25,46.84 34.15,64.56 22.08,17.71 52.48,26.37 90.79,26.37 43.73,0 82.45,-7.08 116.18,-21.26 33.32,-14.16 59.14,-35.81 77.87,-64.55 18.74,-28.74 28.32,-57.47 28.32,-85.81 0,-27.56 -8.75,-55.11 -26.24,-83.06 -17.9,-27.55 -57.05,-73.22 -118.68,-136.98 -84.95,-88.96 -127.42,-174.77 -127.42,-256.64 0,-75.19 32.07,-141.32 96.61,-197.61 64.55,-56.28 146.17,-84.62 245.68,-84.62z"/>
  <line class="fil0 str2" x1="14757.12" y1="11225.87" x2="14759.24" y2= "11224.72" />
  <path class="fil1 str1" d="M13459.4 14730.26c105.27,0 190.62,99.57 190.62,222.38 0,122.82 -85.35,222.38 -190.62,222.38 -105.28,0 -190.62,-99.56 -190.62,-222.38 0,-122.81 85.34,-222.38 190.62,-222.38z"/>
  <path class="fil1 str1" d="M14936.67 14007.48c105.27,0 190.62,99.57 190.62,222.38 0,122.82 -85.35,222.38 -190.62,222.38 -105.28,0 -190.62,-99.56 -190.62,-222.38 0,-122.81 85.34,-222.38 190.62,-222.38z"/>
  <path class="fil1 str1" d="M16676.06 13832.75c105.27,0 190.62,99.56 190.62,222.38 0,122.82 -85.35,222.38 -190.62,222.38 -105.28,0 -190.62,-99.56 -190.62,-222.38 0,-122.82 85.34,-222.38 190.62,-222.38z"/>
  <path class="fil1 str1" d="M17517.95 12419c105.28,0 190.62,99.57 190.62,222.38 0,122.82 -85.34,222.39 -190.62,222.39 -105.27,0 -190.62,-99.57 -190.62,-222.39 0,-122.81 85.35,-222.38 190.62,-222.38z"/>
  <path class="fil1 str1" d="M18836.38 11561.23c105.28,0 190.62,99.57 190.62,222.38 0,122.82 -85.34,222.38 -190.62,222.38 -105.27,0 -190.62,-99.56 -190.62,-222.38 0,-122.81 85.35,-222.38 190.62,-222.38z"/>
  <path class="fil1 str1" d="M18709.31 10274.58c105.27,0 190.62,99.57 190.62,222.38 0,122.82 -85.35,222.38 -190.62,222.38 -105.28,0 -190.62,-99.56 -190.62,-222.38 0,-122.81 85.34,-222.38 190.62,-222.38z"/>
  <path class="fil1 str1" d="M19471.77 8749.65c105.28,0 190.62,99.56 190.62,222.38 0,122.82 -85.34,222.38 -190.62,222.38 -105.27,0 -190.61,-99.56 -190.61,-222.38 0,-122.82 85.34,-222.38 190.61,-222.38z"/>
  <path class="fil1 str1" d="M18677.54 7320.03c105.27,0 190.61,99.56 190.61,222.38 0,122.81 -85.34,222.38 -190.61,222.38 -105.28,0 -190.62,-99.57 -190.62,-222.38 0,-122.82 85.34,-222.38 190.62,-222.38z"/>
  <path class="fil1 str1" d="M18598.12 5795.09c105.27,0 190.62,99.57 190.62,222.38 0,122.82 -85.35,222.38 -190.62,222.38 -105.28,0 -190.62,-99.56 -190.62,-222.38 0,-122.81 85.34,-222.38 190.62,-222.38z"/>
  <path class="fil1 str1" d="M17343.23 5064.4c105.27,0 190.62,99.56 190.62,222.38 0,122.81 -85.35,222.38 -190.62,222.38 -105.28,0 -190.62,-99.57 -190.62,-222.38 0,-122.82 85.34,-222.38 190.62,-222.38z"/>
  <path class="fil1 str1" d="M16580.76 3714.2c105.28,0 190.62,99.56 190.62,222.38 0,122.81 -85.34,222.38 -190.62,222.38 -105.27,0 -190.62,-99.57 -190.62,-222.38 0,-122.82 85.35,-222.38 190.62,-222.38z"/>
  <path class="fil1 str1" d="M15024.06 3603c105.28,0 190.62,99.57 190.62,222.39 0,122.81 -85.34,222.38 -190.62,222.38 -105.27,0 -190.61,-99.57 -190.61,-222.38 0,-122.82 85.34,-222.39 190.61,-222.39z"/>
  <path class="fil1 str1" d="M13657.99 2761.12c105.27,0 190.62,99.56 190.62,222.38 0,122.82 -85.35,222.38 -190.62,222.38 -105.28,0 -190.62,-99.56 -190.62,-222.38 0,-122.82 85.34,-222.38 190.62,-222.38z"/>
  <path class="fil0 str6" d="M12798.84 12900.95c360.51,5.49 721.02,10.98 1038.05,-15.4 317.03,-26.37 590.58,-84.61 869.93,-176.27 279.36,-91.67 564.52,-216.75 863.36,-412.5 298.84,-195.75 611.37,-462.17 877.39,-759.69 266.02,-297.51 485.53,-626.11 631.03,-920.14 145.5,-294.03 216.98,-553.48 263.31,-791.75 46.33,-238.27 67.51,-455.37 67.74,-705.12 0.22,-249.75 -20.5,-532.16 -57.56,-783.66 -37.07,-251.51 -90.47,-472.12 -171.44,-685.68 -80.98,-213.55 -189.52,-420.05 -321.9,-621.26 -132.37,-201.2 -288.57,-397.12 -435.5,-563.91 -146.94,-166.79 -284.6,-304.46 -454.04,-448.74 -169.44,-144.29 -370.64,-295.2 -586.41,-423.6 -215.77,-128.4 -446.09,-234.3 -701.57,-325.63 -255.48,-91.34 -536.12,-168.12 -827.34,-214.45 -291.21,-46.33 -593.02,-62.21 -861.74,-51.62 -268.71,10.59 -504.34,47.65 -716.14,93.98 -211.79,46.33 -399.76,101.93 -603.61,187.97 -203.86,86.04 -423.59,202.53 -622.82,332.92 -199.22,130.39 -377.92,274.68 -544.71,424.26 -166.79,149.58 -321.67,304.45 -458.67,470.58 -137.01,166.13 -256.14,343.51 -354.1,512.95 -97.95,169.43 -174.73,330.92 -243.56,514.92 -68.84,184 -129.72,390.5 -169.44,609.53 -39.71,219.03 -58.24,450.59 -54.27,682.14 3.97,231.56 30.45,463.11 65.69,654.05 35.23,190.94 79.24,341.26 123.24,491.59"/>
  <path class="fil1 str1" d="M12291.91 3444.17c105.27,0 190.62,99.56 190.62,222.38 0,122.81 -85.35,222.38 -190.62,222.38 -105.27,0 -190.62,-99.57 -190.62,-222.38 0,-122.82 85.35,-222.38 190.62,-222.38z"/>
  <path class="fil1 str1" d="M9466.96 9922.16c86.74,0 157.06,74.54 157.06,166.5 0,91.95 -70.32,166.5 -157.06,166.5 -86.75,0 -157.07,-74.55 -157.07,-166.5 0,-91.96 70.32,-166.5 157.07,-166.5z"/>
  <line class="fil0 str1" x1="12328.73" y1="3836.06" x2="12518.77" y2= "5044.31" />
  <line class="fil0 str1" x1="13644.34" y1="3174.81" x2="13583.46" y2= "5020.25" />
  <line class="fil0 str1" x1="14990.6" y1="3970.91" x2="14664.1" y2= "5255.45" />
  <line class="fil0 str1" x1="16508.67" y1="4114.33" x2="15584.8" y2= "5713.24" />
  <line class="fil0 str1" x1="17305.32" y1="5364.31" x2="16303.35" y2= "6364.43" />
  <line class="fil0 str1" x1="18483.47" y1="6132.8" x2="16892.59" y2= "7115.86" />
  <line class="fil0 str1" x1="18496.17" y1="7611.07" x2="17311.22" y2= "8104.21" />
  <line class="fil0 str1" x1="19281.16" y1="8972.03" x2="17407.41" y2= "8970.19" />
  <line class="fil0 str1" x1="18527.47" y1="10430.07" x2="17312.1" y2= "9925.24" />
  <line class="fil0 str1" x1="18657.94" y1="11705.23" x2="16954.88" y2= "10826.56" />
  <line class="fil0 str1" x1="17362.8" y1="12512.17" x2="16329.9" y2= "11663.61" />
  <line class="fil0 str1" x1="16572.22" y1="13868.61" x2="15603.29" y2= "12274.83" />
  <line class="fil0 str1" x1="14883.26" y1="14016.32" x2="14624.62" y2= "12735.32" />
  <line class="fil0 str1" x1="13496.22" y1="14767.08" x2="13496.18" y2= "12902.75" />
  <path class="fil2 str4" d="M4433 6904.13l-21.45 95.3c-70.14,16.54 -128.24,25.1 -173.26,25.1 -42.91,0 -114.11,-5.14 -213.03,-14.83 -74.85,-6.85 -141.33,-10.27 -200.99,-10.27 -102.07,0 -207.28,10.27 -315.64,30.23l21.47 -91.86c103.11,-11.4 178.48,-34.8 225.07,-70.18 34.02,-25.67 62.81,-69.61 86.89,-131.24 24.07,-62.2 78.51,-277.88 163.3,-648.19l196.29 -885.56 10.47 -42.23c-60.19,-2.27 -105.73,-3.42 -136.09,-3.42 -189.48,0 -339.18,22.82 -450.15,67.33 -110.96,44.51 -194.19,108.98 -250.19,194 -55.49,84.45 -83.23,175.74 -83.23,273.89 0,34.81 5.23,66.18 16.75,95.28 7.85,19.97 30.36,52.51 67.52,97.01 34.55,41.08 51.82,79.31 51.82,113.55 0,30.24 -9.94,55.91 -30.36,77.02 -20.41,21.12 -45.01,31.96 -73.8,31.96 -42.92,0 -77.47,-22.82 -104.17,-67.34 -38.72,-65.61 -58.09,-148.92 -58.09,-250.49 0,-135.8 38.21,-268.17 115.68,-395.99 76.94,-128.37 183.19,-227.66 318.24,-297.85 135.04,-70.18 298.87,-104.99 492.02,-104.99 92.12,0 238.68,14.27 440.2,43.37 142.9,19.97 247.06,29.68 311.44,29.68 64.38,0 109.92,-11.42 136.09,-34.81 26.69,-23.4 40.3,-54.78 40.3,-93.58 0,-7.99 -1.56,-23.39 -4.71,-46.79 -3.14,-21.12 -4.71,-35.38 -4.71,-41.66 0,-30.23 9.42,-55.34 27.74,-75.31 18.32,-19.97 40.31,-30.24 65.95,-30.24 30.36,0 56.01,11.98 75.9,36.52 19.89,24.53 29.84,57.63 29.84,98.71 0,85.01 -41.35,158.05 -124.05,219.1 -83.23,61.63 -221.42,91.87 -415.6,91.87 -69.63,0 -143.95,-3.42 -222.46,-9.7 -10.47,39.95 -42.4,175.75 -96.84,407.41l-133.47 578.58 -81.13 352.62 -84.27 402.84c68.56,9.14 125.09,13.7 170.11,13.7 68.57,0 140.28,-9.71 214.6,-28.54zm1121.18 -324.09l50.78 73.6c-250.73,259.63 -465.33,389.15 -644.34,389.15 -72.76,0 -127.72,-26.82 -166.46,-79.88 -38.2,-53.64 -57.57,-139.8 -57.57,-257.91 0,-238.51 66.48,-475.88 199.42,-712.1 149.18,-268.18 327.67,-402.84 535.47,-402.84 72.23,0 127.72,19.98 166.45,59.34 38.21,39.94 57.05,94.16 57.05,163.19 0,72.47 -22.5,143.79 -68.57,213.98 -46.06,70.18 -128.23,143.21 -247.05,219.1 -59.15,36.52 -186.34,102.71 -380.53,198.56 -8.91,60.49 -13.61,117.55 -13.61,172.32 0,79.32 11.51,134.1 34.54,165.48 23.03,31.39 56.53,46.79 100.5,46.79 41.88,0 87.93,-12.56 138.19,-38.23 66.99,-34.8 165.92,-104.99 295.73,-210.55zm-536.51 -242.51c164.35,-80.45 287.89,-166.61 371.11,-259.05 56.01,-65.04 84.27,-128.95 84.27,-192.28 0,-47.94 -11.52,-86.16 -34.55,-114.69 -23.03,-28.53 -52.87,-42.79 -90.03,-42.79 -37.68,0 -74.33,15.97 -110.43,46.78 -47.64,41.66 -88.46,103.85 -120.92,187.73 -47.11,122.1 -80.09,247.06 -99.45,374.3zm1084.01 661.9l-228.74 0 107.3 -449.63c52.34,-220.83 97.88,-430.23 136.62,-628.8 9.43,-49.07 13.6,-79.3 13.6,-91.86 0,-26.82 -10.99,-39.95 -33.49,-39.95 -15.18,0 -38.73,11.42 -70.66,34.25 -31.41,22.82 -88.99,79.31 -171.69,169.46l-47.63 -58.21c98.41,-114.68 196.29,-200.84 293.64,-258.47 97.88,-57.06 172.74,-86.16 225.08,-86.16 18.32,0 32.45,5.14 43.44,14.26 10.47,9.71 16.23,21.69 16.23,35.95 0,14.84 -6.8,53.07 -19.89,115.27l-65.95 299.56c103.11,-177.46 219.84,-328.67 349.64,-454.77 62.29,-60.48 114.12,-90.15 155.98,-90.15 30.89,0 56.53,10.84 76.94,32.52 20.43,21.69 30.89,46.8 30.89,75.89 0,30.25 -9.95,55.92 -30.36,77.03 -19.88,21.12 -69.61,46.21 -149.18,75.32 -75.89,27.96 -137.13,61.05 -184.77,99.86 -47.62,39.36 -99.96,98.7 -156.49,179.15 -56.53,80.46 -96.31,150.07 -118.82,209.99 -22.51,59.34 -57.06,198 -102.6,415.39l-69.09 324.1zm941.65 0l-228.75 0 107.31 -449.63c52.34,-220.83 97.88,-430.23 136.62,-628.8 9.42,-49.07 13.6,-79.3 13.6,-91.86 0,-26.82 -10.99,-39.95 -33.5,-39.95 -15.18,0 -38.73,11.42 -70.66,34.25 -31.41,22.82 -88.98,79.31 -171.68,169.46l-47.64 -58.21c98.41,-114.68 196.29,-200.84 293.64,-258.47 97.88,-57.06 172.74,-86.16 225.08,-86.16 18.32,0 32.46,5.14 43.45,14.26 10.46,9.71 16.22,21.69 16.22,35.95 0,14.84 -6.8,53.07 -19.89,115.27l-65.95 299.56c103.11,-177.46 219.84,-328.67 349.65,-454.77 62.29,-60.48 114.11,-90.15 155.98,-90.15 30.88,0 56.53,10.84 76.94,32.52 20.42,21.69 30.88,46.8 30.88,75.89 0,30.25 -9.94,55.92 -30.36,77.03 -19.88,21.12 -69.61,46.21 -149.17,75.32 -75.89,27.96 -137.14,61.05 -184.77,99.86 -47.63,39.36 -99.97,98.7 -156.5,179.15 -56.53,80.46 -96.31,150.07 -118.82,209.99 -22.5,59.34 -57.05,198 -102.59,415.39l-69.09 324.1zm1703.74 -1434.48l101.03 -23.39 -115.15 423.38c-45.54,167.75 -88.99,361.76 -130.34,581.44 -22.5,119.25 -33.49,196.28 -33.49,230.51 0,34.81 12.55,51.93 38.2,51.93 16.23,0 42.4,-11.41 78.52,-34.81 63.33,-41.65 124.05,-92.43 182.15,-154.06l49.2 65.05c-116.72,115.83 -191.05,186.59 -224.02,211.12 -65.43,48.5 -127.72,85.02 -186.87,108.41 -38.73,15.4 -76.94,23.39 -113.59,23.39 -26.69,0 -46.58,-6.84 -59.66,-19.97 -13.62,-13.69 -19.89,-33.09 -19.89,-58.76 0,-16.55 4.18,-39.38 12.03,-68.48l61.25 -227.09c-87.94,114.69 -192.62,213.4 -314.06,295.57 -74.85,51.35 -143.42,77.02 -205.7,77.02 -59.15,0 -104.69,-22.82 -136.62,-68.46 -42.92,-61.63 -64.39,-141.52 -64.39,-240.79 0,-118.12 29.32,-249.36 86.89,-394.28 57.59,-144.94 135.04,-276.74 232.41,-394.86 96.83,-118.11 199.42,-204.84 306.73,-260.76 82.7,-42.22 188.96,-63.33 318.77,-63.33 32.97,0 65.95,2.28 99.97,6.85l36.63 -65.63zm-190 256.2c-55.49,-12.55 -102.07,-18.83 -139.76,-18.83 -92.12,0 -172.2,27.96 -240.77,82.74 -68.57,55.35 -131.9,154.62 -191.05,297.85 -58.62,143.22 -87.94,285.86 -87.94,428.51 0,75.89 11.52,130.66 35.08,163.76 23.55,33.67 54.43,50.22 92.12,50.22 70.66,0 146.03,-41.08 227.16,-124.4 80.61,-82.73 139.76,-202.55 177.45,-358.32l127.71 -521.53z"/>
  <path class="fil3 str4" d="M5712.55 8556.56l-90.07 0c12.94,-115.77 19.42,-203.32 19.42,-263.18 0,-84.73 -24.13,-151.93 -71.82,-201.06 -47.71,-49.14 -112.46,-73.43 -194.3,-73.43 -125.98,0 -236.67,44.05 -330.87,131.59 -94.19,87.55 -141.29,185.82 -141.29,295.39 0,58.17 12.94,111.26 38.85,158.71 25.31,47.44 83.01,113.51 171.32,198.8 161.91,151.93 268.47,271.1 319.1,356.95 50.65,86.4 75.96,169.99 75.96,251.89 0,120.3 -38.27,236.08 -114.81,347.35 -76.53,111.25 -188.98,203.32 -337.93,275.61 -148.95,72.3 -306.17,108.44 -471.59,108.44 -163.67,0 -301.45,-41.22 -413.3,-122.56 -111.87,-81.89 -168.39,-167.74 -168.39,-258.11 0,-48.56 14.71,-88.67 44.16,-120.86 29.43,-32.19 62.99,-48.01 100.68,-48.01 39.44,0 71.83,14.68 96.55,44.62 16.48,17.51 32.39,57.61 48.86,119.17 18.26,75.11 40.64,129.33 67.12,163.22 26.49,33.32 63,61 109.5,82.46 46.52,21.46 97.16,32.2 152.5,32.2 164.26,0 308.49,-53.1 431.55,-159.83 122.45,-106.19 184.27,-224.23 184.27,-353 0,-44.05 -7.65,-88.11 -23.56,-131.6 -15.3,-43.48 -43.56,-93.18 -85.36,-147.97 -28.25,-37.84 -92.43,-103.92 -191.34,-198.81 -97.72,-92.62 -158.96,-155.88 -184.28,-190.34 -35.91,-49.69 -62.4,-99.39 -79.47,-149.65 -17.08,-50.27 -25.92,-99.97 -25.92,-149.67 0,-100.53 35.33,-201.08 105.39,-302.73 70.06,-101.67 161.32,-182.43 273.18,-242.3 112.45,-60.42 239.61,-90.36 382.1,-90.36 71.23,0 159.55,10.72 263.76,31.62 60.05,10.74 111.86,19.2 155.43,24.86 -25.33,71.72 -44.74,138.93 -58.88,202.76 -13.55,63.24 -32.37,189.19 -56.52,377.83zm1005.59 -49.69c112.45,0 206.06,42.92 280.84,129.33 74.76,85.85 112.44,205.58 112.44,358.65 0,245.1 -89.49,464.82 -269.06,659.67 -179.57,194.84 -369.15,291.99 -569.32,291.99 -123.04,0 -221.95,-38.41 -297.32,-115.78 -75.36,-77.38 -113.03,-182.43 -113.03,-316.28 0,-231.57 68.88,-445.62 206.64,-641.61 173.69,-243.98 389.76,-365.97 648.81,-365.97zm-146.59 124.25c-97.75,0 -192.53,67.21 -283.79,201.06 -91.26,133.85 -137.17,319.11 -137.17,555.19 0,143.46 28.25,256.41 84.77,338.88 41.22,60.99 96.56,90.93 165.45,90.93 96.55,0 184.27,-57.05 263.75,-171.7 101.27,-149.11 151.9,-333.79 151.9,-554.62 0,-165.49 -23.54,-283.52 -70.07,-354.13 -46.51,-70.6 -104.79,-105.61 -174.84,-105.61zm1421.22 868.65l58.29 59.29c-89.5,97.15 -195.46,185.82 -317.93,266.02 -122.45,79.64 -223.72,119.73 -303.2,119.73 -35.32,0 -64.77,-12.98 -87.72,-38.97 -22.96,-25.98 -34.73,-61.56 -34.73,-106.74 0,-88.11 35.9,-271.1 107.14,-548.97l186.05 -726.89c68.3,-262.06 124.8,-438.28 171.33,-527.51 71.23,-135.55 171.9,-241.16 302.61,-316.28 130.1,-75.11 267.88,-112.39 412.71,-112.39 49.45,0 88.31,11.3 116.57,33.88 28.26,22.6 42.39,50.27 42.39,81.9 0,35.59 -14.13,64.39 -41.2,86.98 -27.68,22.59 -68.31,33.88 -121.29,33.88 -34.15,0 -83.03,-5.64 -146.6,-16.38 -54.75,-9.03 -105.97,-13.55 -153.07,-13.55 -47.1,0 -83.02,9.6 -107.15,28.24 -33.57,26.55 -63.59,82.46 -90.68,167.18 -27.07,84.71 -70.64,252.46 -131.88,503.22l-170.73 693c-84.78,347.34 -127.76,529.2 -127.76,544.46 0,35.58 13.55,53.08 40.04,53.08 25.3,0 61.82,-14.68 110.1,-42.92 95.37,-57.61 190.74,-131.03 286.71,-220.26z"/>
  <path class="fil3 str4" d="M3519.48 8386.09c69.21,-33.26 123.49,-73.75 162.56,-121.47 39.08,-47.72 58.46,-97.47 58.46,-148.67 0,-47.43 -11.93,-84.16 -35.49,-110.19 -23.56,-26.04 -56.67,-39.04 -99.92,-39.04 -45.94,0 -81.73,14.17 -107.08,42.8 -25.36,28.63 -37.89,69.12 -37.89,121.48 0,35.86 5.07,74.91 14.92,117.42 9.85,42.8 24.76,88.5 44.44,137.67zm160.78 564.57c-68.31,-78.67 -126.18,-154.44 -174.2,-227.62 -48.02,-73.17 -86.8,-144.32 -115.73,-213.16 -73.97,35 -129.46,75.49 -166.45,121.77 -36.98,45.98 -55.47,97.17 -55.47,153.57 0,78.68 25.65,144.91 77.26,198.7 51.6,54.09 114.53,80.99 189.1,80.99 38.48,0 79.64,-10.12 123.19,-30.37 43.55,-20.53 84.42,-48.31 122.3,-83.88zm35.79 39.63c-58.76,56.11 -122.3,98.63 -190.6,128.12 -68.01,29.21 -137.51,43.97 -208.8,43.97 -98.43,0 -177.48,-26.32 -237.43,-79.25 -59.95,-52.93 -90.08,-122.35 -90.08,-208.82 0,-81.86 30.73,-156.47 91.88,-223.29 61.14,-66.81 156.88,-131.01 287.24,-192.04 -20.29,-51.78 -35.2,-98.05 -44.45,-137.97 -9.25,-40.19 -14.02,-78.09 -14.02,-113.66 0,-83.58 28.04,-153 83.82,-208.53 56.08,-55.24 126.47,-83.01 211.48,-83.01 71.58,0 127.07,17.06 166.44,50.91 39.37,33.84 59.06,81.85 59.06,144.03 0,63.92 -22.38,120.89 -66.82,171.22 -44.74,50.32 -118.41,100.94 -221.62,151.56 31.62,61.03 68.31,123.5 110.66,187.41 42.06,63.92 88.89,127.84 140.2,192.34 54.28,-68.84 96.04,-133.33 125.27,-193.49 29.53,-60.16 44.44,-111.06 44.44,-152.13 0,-24.3 -8.35,-42.52 -24.76,-54.38 -16.1,-11.86 -42.95,-19.09 -80.23,-21.98l0 -36.45 362.71 0 0 36.45c-59.96,1.16 -116.63,45.41 -169.73,133.05l-4.17 6.65c-5.97,10.41 -15.81,27.76 -29.83,52.64 -62.94,111.93 -124.97,203.9 -186.12,276.21 52.49,56.4 104.1,100.07 155.1,130.72 51,30.95 96.64,46.29 136.91,46.29 31.92,0 59.36,-6.08 82.62,-18.51 22.97,-12.44 49.52,-36.16 79.94,-71.16l21.78 27.19c-49.52,67.68 -96.34,115.98 -140.79,144.9 -44.14,28.63 -92.77,43.1 -145.86,43.1 -44.44,0 -91.87,-14.47 -142.57,-43.1 -50.71,-28.92 -104.7,-72.02 -161.67,-128.99z"/>
  <path class="fil4 str5" d="M11732.71 16225.49l-64.96 0c4.16,-59.83 6.25,-107.85 6.25,-144.06 0,-108.26 -24.15,-183.83 -72.05,-226.35 -47.47,-42.9 -107.85,-64.15 -180.73,-64.15 -97.02,0 -198.22,36.99 -302.73,111.39 -104.53,74.4 -194.49,190.12 -269.85,347.57 -75.37,157.45 -112.85,319.24 -112.85,485.35 0,160.99 34.98,284.2 104.94,370.01 69.54,85.81 157.41,128.72 262.75,128.72 142.85,0 274.02,-80.7 393.53,-242.48 12.08,-16.14 24.57,-24.4 37.9,-24.4 10.41,0 19.57,3.14 27.07,9.83 7.08,6.31 10.81,13.78 10.81,22.44 0,20.87 -27.06,61.41 -81.19,122.03 -54.13,60.61 -122.44,111 -204.88,151.15 -82.03,40.55 -163.24,60.62 -242.78,60.62 -96.19,0 -185.31,-23.62 -267.75,-70.85 -82.47,-47.24 -146.18,-114.94 -191.98,-202.33 -45.39,-87.78 -68.3,-191.69 -68.3,-312.54 0,-168.47 46.64,-335.77 139.92,-502.66 93.28,-166.9 209.88,-295.62 349.81,-386.15 139.91,-90.93 276.49,-136.2 410.17,-136.2 47.88,0 95.77,5.12 142.83,14.96 20.4,4.73 104.11,31.1 251.52,79.52 -45.8,131.86 -71.62,268.05 -77.45,408.58zm660.87 -89.74c79.95,0 146.17,29.91 199.05,90.13 52.89,59.84 79.54,143.28 79.54,250.36 0,170.43 -63.72,323.95 -190.72,459.75 -127.02,135.8 -261.1,203.51 -403.11,203.51 -87.02,0 -157.4,-26.78 -210.71,-80.7 -53.3,-53.93 -79.95,-127.54 -79.95,-220.43 0,-161.38 48.72,-310.57 146.59,-447.55 122.84,-170.05 276.08,-255.07 459.31,-255.07zm-104.11 87.38c-69.12,0 -135.75,46.84 -200.3,140.13 -64.54,93.29 -96.61,222.4 -96.61,386.54 0,99.98 19.99,178.71 59.55,236.58 29.14,42.11 68.29,63.37 117.02,63.37 67.87,0 129.92,-40.16 186.14,-120.06 71.21,-103.52 107.02,-232.24 107.02,-386.15 0,-115.33 -16.24,-197.6 -49.14,-246.8 -32.9,-49.21 -74.12,-73.61 -123.68,-73.61zm532.2 186.58l-42.48 -40.15c104.94,-94.08 188.64,-156.66 251.11,-187.37 62.04,-31.1 115.35,-46.44 159.48,-46.44 17.5,0 30.83,3.54 40.82,10.23 9.58,6.69 14.58,14.56 14.58,24.01 0,6.69 -2.09,18.89 -5.84,36.22l-55.38 231.84c82.45,-86.99 186.13,-168.08 311.06,-243.66 66.21,-38.97 120.77,-58.64 163.66,-58.64 31.65,0 56.64,9.44 74.12,28.34 17.91,18.89 27.08,46.44 27.08,81.87 0,24.01 -3.75,50.78 -11.24,80.69 -12.92,49.99 -46.65,159.03 -101.61,326.71 -51.64,156.66 -77.47,260.98 -77.47,312.55 0,16.14 2.51,28.34 7.09,36.21 4.99,8.27 12.07,12.2 20.82,12.2 23.74,0 60.8,-21.65 111.18,-64.95 35.82,-31.09 71.63,-59.83 107.45,-86.21l27.48 42.52c-74.54,77.94 -151.59,140.52 -231.54,188.15 -51.21,30.31 -92.85,45.67 -126.17,45.67 -30.82,0 -54.55,-10.64 -71.63,-31.89 -17.07,-21.25 -25.41,-55.9 -25.41,-103.91 0,-68.5 45.4,-238.54 135.77,-510.94 27.89,-96.83 41.64,-153.12 41.64,-169.26 0,-22.83 -14.99,-34.25 -44.98,-34.25 -32.48,0 -74.54,16.14 -125.76,48.43 -76.62,47.63 -140.33,103.51 -191.56,168.07 -32.47,41.73 -59.96,107.85 -81.62,198.4l-99.1 402.28 -181.56 0c34.14,-115.33 63.7,-225.55 89.12,-330.65l108.26 -438.1c4.16,-17.33 6.25,-29.53 6.25,-37.01 0,-20.07 -8.33,-30.31 -24.58,-30.31 -13.32,0 -32.06,7.88 -56.63,24.02 -50.8,31.48 -98.27,70.06 -142.41,115.33zm1155.57 -198.39l291.5 0c47.89,-192.1 102.86,-334.98 164.49,-429.06 62.04,-93.68 142.42,-167.68 241.53,-222 99.11,-53.92 192.81,-81.09 280.67,-81.09 49.55,0 87.03,9.45 112.02,27.95 25.4,18.5 37.89,40.15 37.89,65.73 0,23.23 -8.33,42.51 -25.4,57.87 -17.07,15.35 -39.57,23.22 -67.04,23.22 -28.74,0 -82.04,-7.87 -161.16,-24.01 -38.73,-7.48 -69.54,-11.41 -91.2,-11.41 -53.72,0 -102.02,31.09 -145.32,93.68 -42.9,62.59 -77.46,147.21 -103.28,253.89l-64.14 245.23 324.81 0 -19.57 82.66 -326.47 0 -191.97 736.48c-59.14,223.58 -154.08,392.84 -284.84,507.78 -130.34,115.34 -271.92,172.8 -424.76,172.8 -51.21,0 -89.94,-9.45 -116.59,-27.94 -26.23,-18.9 -39.56,-41.73 -39.56,-69.28 0,-23.62 9.16,-42.52 27.48,-56.3 18.32,-14.16 44.56,-21.25 78.7,-21.25 17.08,0 42.07,1.97 75.39,5.91 57.04,7.09 111.59,10.62 163.64,10.62 80.38,0 139.09,-18.11 175.32,-53.92 36.65,-35.82 73.29,-123.2 109.93,-262.94l247.37 -941.96 -291.09 0 21.65 -82.66zm1397.53 604.61l39.97 49.6c-199.05,179.49 -369.36,269.24 -511.78,269.24 -57.47,0 -101.61,-18.5 -132.01,-55.1 -30.4,-37.01 -45.8,-96.05 -45.8,-177.14 0,-164.15 52.88,-327.11 158.65,-489.68 118.69,-184.61 260.27,-277.1 425.59,-277.1 57.47,0 101.6,13.77 132.01,40.93 30.4,27.16 45.8,64.56 45.8,112.19 0,49.99 -18.32,98.8 -54.97,147.21 -36.63,48.41 -102.02,98.8 -196.13,150.76 -47.48,25.19 -148.25,70.86 -302.74,136.98 -7.08,41.34 -10.83,80.7 -10.83,118.49 0,54.32 9.16,92.5 27.48,113.76 18.33,21.64 44.98,32.27 79.96,32.27 33.3,0 69.54,-9.05 109.52,-26.76 53.72,-23.62 132,-72.43 235.28,-145.65zm-426.84 -165.32c130.76,-55.11 229.03,-114.55 294.82,-177.92 44.56,-44.48 67.06,-88.57 67.06,-132.26 0,-32.67 -9.17,-59.05 -27.49,-78.72 -18.31,-19.29 -42.06,-29.14 -71.21,-29.14 -29.98,0 -59.12,10.63 -87.45,32.28 -38.3,28.34 -70.37,71.25 -96.19,128.33 -37.48,84.23 -64.13,170.04 -79.54,257.43zm1308.41 207.84l27.48 66.12c-194.89,143.28 -359.37,214.93 -493.47,214.93 -71.21,0 -122.83,-24.02 -155.32,-71.65 -32.07,-47.62 -48.31,-108.25 -48.31,-181.46 0,-121.63 34.15,-246.8 102.87,-375.12 68.29,-128.72 151.57,-227.13 249.02,-296.01 76.62,-53.15 163.23,-79.51 259.43,-79.51 59.97,0 105.78,10.62 136.58,32.27 31.23,21.65 46.65,47.63 46.65,78.33 0,24.01 -8.34,43.3 -24.57,58.26 -16.25,14.96 -39.15,22.44 -68.3,22.44 -28.31,0 -64.96,-12.2 -109.93,-36.61 -46.23,-25.98 -84.96,-38.97 -116.19,-38.97 -39.56,0 -79.54,16.93 -119.1,51.18 -39.14,34.23 -77.03,100.76 -112.85,199.17 -35.81,98.4 -53.71,197.6 -53.71,296.79 0,72.82 14.99,129.5 45.38,169.66 22.08,30.7 52.88,46.05 92.87,46.05 95.36,0 209.47,-51.96 341.47,-155.87zm849.09 0l27.49 66.12c-194.9,143.28 -359.39,214.93 -493.48,214.93 -71.2,0 -122.84,-24.02 -155.32,-71.65 -32.06,-47.62 -48.31,-108.25 -48.31,-181.46 0,-121.63 34.15,-246.8 102.86,-375.12 68.3,-128.72 151.58,-227.13 249.02,-296.01 76.63,-53.15 163.24,-79.51 259.43,-79.51 59.98,0 105.78,10.62 136.59,32.27 31.24,21.65 46.64,47.63 46.64,78.33 0,24.01 -8.33,43.3 -24.56,58.26 -16.25,14.96 -39.15,22.44 -68.3,22.44 -28.31,0 -64.96,-12.2 -109.94,-36.61 -46.22,-25.98 -84.95,-38.97 -116.18,-38.97 -39.56,0 -79.54,16.93 -119.1,51.18 -39.14,34.23 -77.03,100.76 -112.84,199.17 -35.83,98.4 -53.72,197.6 -53.72,296.79 0,72.82 14.99,129.5 45.38,169.66 22.08,30.7 52.89,46.05 92.87,46.05 95.36,0 209.46,-51.96 341.47,-155.87zm-432.25 226.73l79.95 0 -74.54 130.68c45.39,5.9 78.7,20.46 99.94,43.29 21.25,22.45 32.07,49.21 32.07,80.31 0,53.53 -34.57,108.24 -104.1,163.36 -69.14,55.1 -166.99,92.1 -293.18,111.39l24.99 -68.49c74.55,-14.56 134.51,-40.55 179.9,-77.55 31.64,-25.58 47.47,-54.71 47.47,-86.99 0,-24.79 -10.42,-45.26 -30.81,-62.19 -20.41,-16.54 -44.98,-24.8 -74.54,-24.8 -5,0 -11.25,0.39 -19.58,1.18l132.43 -210.19zm1215.12 -949.43c79.95,0 146.17,29.91 199.05,90.13 52.89,59.84 79.55,143.28 79.55,250.36 0,170.43 -63.73,323.95 -190.73,459.75 -127.01,135.8 -261.1,203.51 -403.1,203.51 -87.03,0 -157.41,-26.78 -210.71,-80.7 -53.31,-53.93 -79.95,-127.54 -79.95,-220.43 0,-161.38 48.72,-310.57 146.58,-447.55 122.84,-170.05 276.08,-255.07 459.31,-255.07zm-104.11 87.38c-69.12,0 -135.75,46.84 -200.3,140.13 -64.54,93.29 -96.61,222.4 -96.61,386.54 0,99.98 19.99,178.71 59.55,236.58 29.15,42.11 68.29,63.37 117.02,63.37 67.88,0 129.92,-40.16 186.14,-120.06 71.21,-103.52 107.03,-232.24 107.03,-386.15 0,-115.33 -16.25,-197.6 -49.15,-246.8 -32.89,-49.21 -74.12,-73.61 -123.68,-73.61zm452.66 -486.52l67.46 0c-22.9,70.85 -56.22,125.17 -100.78,162.96 -44.13,37.79 -91.19,56.68 -140.74,56.68 -25.41,0 -48.31,-2.36 -68.29,-7.09 -10.84,-2.36 -37.91,-13.78 -82.04,-34.25 -45.39,-20.47 -74.54,-32.67 -86.63,-36.6 -17.9,-4.72 -35.8,-7.08 -53.71,-7.08 -22.07,0 -40.81,5.9 -56.22,17.7 -15.41,11.82 -31.64,34.25 -48.72,67.32l-67.46 0c19.57,-76.37 49.97,-131.87 91.19,-166.9 41.24,-35.03 86.2,-52.74 134.09,-52.74 36.23,0 90.37,13.77 163.25,41.32 68.29,25.98 116.59,38.98 144.49,38.98 26.23,0 49.14,-7.88 69.13,-23.23 19.99,-15.35 31.65,-34.25 34.98,-57.07zm684.18 1079.32l39.98 49.6c-199.05,179.49 -369.36,269.24 -511.78,269.24 -57.47,0 -101.61,-18.5 -132.01,-55.1 -30.4,-37.01 -45.8,-96.05 -45.8,-177.14 0,-164.15 52.88,-327.11 158.64,-489.68 118.7,-184.61 260.28,-277.1 425.6,-277.1 57.47,0 101.6,13.77 132.01,40.93 30.4,27.16 45.81,64.56 45.81,112.19 0,49.99 -18.33,98.8 -54.98,147.21 -36.64,48.41 -102.02,98.8 -196.13,150.76 -47.47,25.19 -148.25,70.86 -302.74,136.98 -7.08,41.34 -10.83,80.7 -10.83,118.49 0,54.32 9.17,92.5 27.48,113.76 18.33,21.64 44.98,32.27 79.96,32.27 33.31,0 69.54,-9.05 109.52,-26.76 53.72,-23.62 132,-72.43 235.27,-145.65zm-426.83 -165.32c130.76,-55.11 229.04,-114.55 294.83,-177.92 44.55,-44.48 67.05,-88.57 67.05,-132.26 0,-32.67 -9.16,-59.05 -27.49,-78.72 -18.31,-19.29 -42.06,-29.14 -71.21,-29.14 -29.98,0 -59.12,10.63 -87.45,32.28 -38.3,28.34 -70.37,71.25 -96.19,128.33 -37.48,84.23 -64.13,170.04 -79.54,257.43zm1170.98 -514.86c72.46,0 128.68,13.38 168.25,40.14 39.56,26.77 59.13,57.48 59.13,92.11 0,20.87 -8.33,39.36 -24.99,54.72 -16.66,15.34 -36.65,23.22 -60.39,23.22 -15.4,0 -28.72,-3.15 -40.38,-9.84 -11.25,-6.69 -27.49,-23.22 -48.73,-49.21 -39.98,-50.38 -79.12,-75.57 -118.26,-75.57 -33.32,0 -62.88,12.2 -88.7,36.21 -25.4,24.01 -38.32,54.32 -38.32,90.15 0,31.48 7.92,62.19 24.16,91.71 16.24,29.52 57.48,77.15 123.26,142.89 89.95,90.53 134.93,176.34 134.93,257.83 0,81.08 -36.65,152.32 -109.95,213.34 -73.28,61.01 -167.39,91.32 -282.75,91.32 -97.02,0 -169.06,-18.5 -216.11,-55.5 -47.06,-37.39 -70.81,-83.06 -70.81,-137.38 0,-26.76 8.75,-48.81 26.66,-66.52 17.9,-17.72 39.56,-26.37 65.79,-26.37 22.49,0 42.07,7.09 58.31,21.25 16.23,14.18 24.14,30.7 24.14,49.99 0,7.87 -0.41,17.72 -1.66,29.92 -0.41,9.84 -0.84,18.5 -0.84,25.19 0,25.59 11.25,46.84 34.15,64.56 22.08,17.71 52.48,26.37 90.79,26.37 43.73,0 82.45,-7.08 116.18,-21.26 33.32,-14.16 59.14,-35.81 77.87,-64.55 18.74,-28.74 28.32,-57.47 28.32,-85.81 0,-27.56 -8.75,-55.11 -26.24,-83.06 -17.9,-27.55 -57.05,-73.22 -118.68,-136.98 -84.95,-88.96 -127.42,-174.77 -127.42,-256.64 0,-75.19 32.07,-141.32 96.61,-197.61 64.55,-56.28 146.17,-84.62 245.68,-84.62z"/>
  <path class="fil5 str3" d="M10613.02 13647.71c43.73,-0.45 129.96,-4.96 173.06,-7.63 43.09,-2.67 43.06,-3.5 41.75,-34.27 -1.32,-30.77 -3.91,-91.48 -5.2,-121.83 -1.3,-30.36 -1.3,-30.36 -40.68,-73.38 -39.38,-43.03 -118.14,-129.08 -157.52,-172.1 -39.37,-43.02 -39.37,-43.02 -47.39,-2.65 -8.02,40.38 -24.06,121.13 -32.08,161.51 -8.02,40.37 -8.02,40.37 -5.47,66.04 2.55,25.67 7.66,77.01 10.26,103.21 2.61,26.19 2.71,27.25 5.15,35.46 2.43,8.21 7.2,23.56 10.19,33.03 2.99,9.48 4.21,13.07 47.93,12.61z"/>
  <path class="fil5" d="M5038.82 14126.29c-2.32,2.74 -2.32,2.74 17.75,15.87 20.07,13.13 60.21,39.39 91.36,61.28 31.15,21.89 53.32,39.39 83.86,67.6 30.53,28.21 69.43,67.11 110,102.53 40.58,35.43 82.83,67.37 127.85,97.12 45.02,29.74 92.8,57.28 137.92,72.78 45.12,15.49 87.57,18.94 132.07,16.84 44.51,-2.11 91.06,-9.77 141.66,-23.67 50.61,-13.9 105.26,-34.04 163.99,-65.65 58.73,-31.62 121.53,-74.72 167.23,-109.82 45.7,-35.11 74.29,-62.22 102.45,-89.65 28.17,-27.43 55.92,-55.17 69.79,-69.05 13.87,-13.87 13.87,-13.87 6.59,-29.09 -7.28,-15.22 -21.84,-45.67 -68.67,-95.14 -46.83,-49.48 -125.92,-117.98 -178.21,-164.97 -52.28,-47 -77.77,-72.48 -123.08,-93.83 -45.3,-21.34 -110.44,-38.55 -170.67,-47.15 -60.23,-8.61 -115.55,-8.61 -181.4,5.43 -65.85,14.03 -142.22,42.1 -214.52,83.67 -72.31,41.56 -140.56,96.62 -186.83,131.83 -46.28,35.21 -70.58,50.57 -103.18,67.16 -32.59,16.58 -73.47,34.39 -96.23,46.04 -22.76,11.64 -27.41,17.13 -29.73,19.87z"/>
  <path class="fil6" d="M5212.71 14109.92c-2.75,-0.02 -2.75,-0.02 40.44,-33.46 43.19,-33.43 129.58,-100.31 211.73,-150.08 82.15,-49.76 160.07,-82.43 230.32,-96.6 70.26,-14.17 132.86,-9.86 181.98,-1.58 49.13,8.28 84.77,20.52 152.87,69.65 68.11,49.13 168.68,135.14 218.96,178.15 50.29,43.01 50.29,43.01 -128.52,41.51 -178.81,-1.49 -536.43,-4.48 -717.99,-6 -181.55,-1.52 -187.05,-1.57 -189.79,-1.59z"/>
  <path class="fil6" d="M5203.88 14192.51c-2.89,-2.17 -2.89,-2.17 174.21,3.83 177.11,5.99 531.31,17.99 708.42,23.99 177.1,5.99 177.1,5.99 169.16,20.88 -7.94,14.89 -23.83,44.67 -81.42,87.7 -57.58,43.02 -156.86,99.28 -248.2,127.41 -91.34,28.13 -174.73,28.13 -242.39,15.88 -67.66,-12.25 -119.58,-36.76 -194.51,-83.6 -74.92,-46.85 -172.86,-116.05 -224.72,-152.81 -51.86,-36.77 -57.65,-41.11 -60.55,-43.28z"/>
  <path class="fil5" d="M9164.86 14200.26c2.32,-2.74 2.32,-2.74 -17.75,-15.87 -20.07,-13.13 -60.21,-39.4 -91.36,-61.28 -31.15,-21.89 -53.32,-39.4 -83.86,-67.61 -30.53,-28.2 -69.43,-67.1 -110,-102.53 -40.58,-35.42 -82.83,-67.37 -127.85,-97.11 -45.02,-29.74 -92.8,-57.28 -137.92,-72.78 -45.12,-15.5 -87.57,-18.95 -132.07,-16.84 -44.5,2.1 -91.06,9.76 -141.66,23.66 -50.61,13.91 -105.26,34.04 -163.99,65.66 -58.73,31.62 -121.53,74.71 -167.23,109.82 -45.7,35.1 -74.29,62.21 -102.45,89.65 -28.17,27.42 -55.92,55.17 -69.79,69.04 -13.87,13.88 -13.87,13.88 -6.59,29.1 7.28,15.22 21.84,45.67 68.67,95.14 46.83,49.47 125.92,117.98 178.21,164.97 52.29,46.99 77.77,72.48 123.08,93.82 45.3,21.35 110.44,38.55 170.67,47.16 60.23,8.6 115.55,8.6 181.4,-5.43 65.85,-14.04 142.22,-42.11 214.53,-83.67 72.3,-41.57 140.55,-96.62 186.83,-131.83 46.27,-35.21 70.57,-50.58 103.17,-67.16 32.59,-16.59 73.47,-34.4 96.23,-46.04 22.76,-11.65 27.41,-17.13 29.73,-19.87z"/>
  <path class="fil6" d="M8990.98 14216.62c2.74,0.03 2.74,0.03 -40.45,33.46 -43.19,33.44 -129.58,100.31 -211.73,150.08 -82.15,49.77 -160.07,82.43 -230.32,96.61 -70.26,14.17 -132.86,9.85 -181.98,1.57 -49.12,-8.28 -84.77,-20.52 -152.87,-69.65 -68.11,-49.12 -168.68,-135.14 -218.96,-178.14 -50.29,-43.01 -50.29,-43.01 128.52,-41.52 178.81,1.5 536.43,4.49 717.99,6.01 181.55,1.52 187.05,1.56 189.8,1.58z"/>
  <path class="fil6" d="M8999.8 14134.04c2.89,2.17 2.89,2.17 -174.21,-3.83 -177.11,-6 -531.31,-17.99 -708.42,-23.99 -177.1,-6 -177.1,-6 -169.16,-20.89 7.95,-14.89 23.83,-44.67 81.42,-87.69 57.58,-43.02 156.86,-99.28 248.2,-127.41 91.34,-28.13 174.73,-28.13 242.39,-15.88 67.66,12.25 119.58,36.75 194.51,83.6 74.92,46.85 172.86,116.04 224.72,152.81 51.87,36.77 57.65,41.11 60.55,43.28z"/>
  <path class="fil5" d="M7169.82 12224.33c-2.74,-2.32 -2.74,-2.32 -15.87,17.75 -13.14,20.07 -39.4,60.21 -61.29,91.36 -21.88,31.16 -39.39,53.33 -67.6,83.86 -28.2,30.53 -67.11,69.43 -102.53,110.01 -35.42,40.57 -67.37,82.82 -97.11,127.84 -29.75,45.02 -57.29,92.81 -72.78,137.92 -15.5,45.12 -18.95,87.57 -16.84,132.08 2.1,44.5 9.76,91.05 23.66,141.65 13.9,50.61 34.04,105.27 65.66,163.99 31.61,58.74 74.71,121.54 109.81,167.23 35.11,45.7 62.22,74.29 89.65,102.46 27.43,28.16 55.18,55.91 69.05,69.78 13.87,13.87 13.87,13.87 29.1,6.59 15.22,-7.28 45.66,-21.84 95.14,-68.67 49.47,-46.82 117.97,-125.92 164.97,-178.21 46.99,-52.28 72.47,-77.76 93.82,-123.07 21.35,-45.31 38.55,-110.45 47.16,-170.68 8.6,-60.23 8.6,-115.55 -5.43,-181.4 -14.04,-65.85 -42.11,-142.21 -83.67,-214.52 -41.57,-72.31 -96.63,-140.56 -131.84,-186.83 -35.21,-46.28 -50.57,-70.58 -67.16,-103.17 -16.58,-32.6 -34.39,-73.48 -46.04,-96.24 -11.64,-22.76 -17.12,-27.41 -19.86,-29.73z"/>
  <path class="fil6" d="M7186.18 12398.22c0.02,-2.75 0.02,-2.75 33.46,40.44 33.44,43.2 100.31,129.58 150.08,211.73 49.77,82.15 82.43,160.07 96.6,230.33 14.18,70.26 9.86,132.85 1.58,181.98 -8.28,49.12 -20.52,84.76 -69.65,152.87 -49.13,68.1 -135.14,168.67 -178.15,218.96 -43,50.28 -43,50.28 -41.51,-128.53 1.5,-178.81 4.49,-536.43 6,-717.98 1.52,-181.56 1.57,-187.05 1.59,-189.8z"/>
  <path class="fil6" d="M7103.6 12389.4c2.17,-2.9 2.17,-2.9 -3.83,174.21 -6,177.1 -18,531.31 -23.99,708.41 -6,177.1 -6,177.1 -20.89,169.16 -14.89,-7.94 -44.67,-23.83 -87.69,-81.41 -43.02,-57.59 -99.28,-156.87 -127.41,-248.21 -28.14,-91.33 -28.14,-174.73 -15.88,-242.39 12.25,-67.65 36.75,-119.57 83.6,-194.5 46.84,-74.93 116.04,-172.87 152.81,-224.73 36.76,-51.86 41.1,-57.65 43.28,-60.54z"/>
  <path class="fil5" d="M7073.47 16265.02c2.74,2.32 2.74,2.32 15.87,-17.75 13.13,-20.07 39.4,-60.2 61.28,-91.36 21.89,-31.15 39.4,-53.32 67.6,-83.86 28.21,-30.53 67.11,-69.43 102.54,-110 35.42,-40.58 67.37,-82.83 97.11,-127.85 29.74,-45.02 57.28,-92.8 72.78,-137.92 15.49,-45.12 18.95,-87.57 16.84,-132.07 -2.1,-44.5 -9.76,-91.06 -23.67,-141.66 -13.9,-50.61 -34.03,-105.26 -65.65,-163.99 -31.62,-58.73 -74.71,-121.53 -109.82,-167.23 -35.1,-45.69 -62.22,-74.29 -89.65,-102.45 -27.43,-28.17 -55.17,-55.91 -69.04,-69.79 -13.88,-13.87 -13.88,-13.87 -29.1,-6.59 -15.22,7.28 -45.67,21.84 -95.14,68.67 -49.47,46.83 -117.98,125.92 -164.97,178.21 -46.99,52.29 -72.48,77.77 -93.82,123.08 -21.35,45.31 -38.56,110.44 -47.16,170.67 -8.6,60.23 -8.6,115.56 5.43,181.4 14.04,65.85 42.11,142.22 83.67,214.53 41.57,72.3 96.62,140.55 131.83,186.83 35.21,46.27 50.58,70.58 67.16,103.17 16.59,32.59 34.4,73.47 46.04,96.23 11.65,22.77 17.13,27.41 19.87,29.73z"/>
  <path class="fil6" d="M7057.11 16091.14c-0.03,2.74 -0.03,2.74 -33.46,-40.45 -33.44,-43.19 -100.31,-129.58 -150.08,-211.73 -49.77,-82.15 -82.43,-160.07 -96.61,-230.32 -14.17,-70.26 -9.85,-132.86 -1.57,-181.98 8.28,-49.12 20.52,-84.77 69.64,-152.87 49.13,-68.11 135.15,-168.68 178.15,-218.96 43.01,-50.29 43.01,-50.29 41.51,128.52 -1.49,178.81 -4.48,536.43 -6,717.99 -1.52,181.55 -1.56,187.05 -1.58,189.8z"/>
  <path class="fil6" d="M7139.69 16099.96c-2.17,2.89 -2.17,2.89 3.83,-174.21 6,-177.11 17.99,-531.31 23.99,-708.42 6,-177.1 6,-177.1 20.89,-169.16 14.89,7.95 44.67,23.83 87.69,81.42 43.02,57.58 99.28,156.86 127.41,248.2 28.13,91.34 28.13,174.73 15.88,242.39 -12.25,67.66 -36.75,119.58 -83.6,194.51 -46.85,74.93 -116.04,172.86 -152.81,224.72 -36.77,51.87 -41.11,57.65 -43.28,60.55z"/>
  <path class="fil0 str1" d="M13984.36 11509.44c13.46,-207.13 26.93,-414.26 40.54,-613.68 13.61,-199.41 27.38,-391.1 40.77,-543.5 13.4,-152.4 26.43,-265.51 48.2,-422.78 21.77,-157.28 52.28,-358.71 114.11,-644.81 61.83,-286.09 154.98,-656.83 302.39,-1070.04 147.42,-413.21 349.1,-868.89 449.93,-1096.73 100.84,-227.84 100.84,-227.84 100.84,-227.84"/>
  <path class="fil0 str1" d="M15244.12 7017.53c-43.92,81.8 -87.84,163.59 -146.44,306.74 -58.59,143.14 -131.87,347.65 -210.41,594.6 -78.53,246.95 -162.33,536.35 -233.14,849.09 -70.81,312.74 -128.62,648.83 -171.01,1000.27 -42.4,351.45 -69.37,718.24 -85.91,992.63 -16.55,274.4 -22.67,456.41 -28.79,638.42"/>
  <path class="fil0 str1" d="M14759.24 11224.72c-7.9,-109.66 -15.8,-219.32 1.12,-490.78 16.92,-271.45 58.67,-704.7 104.69,-1052.37 46.03,-347.67 96.33,-609.77 162.52,-867.23 66.18,-257.47 148.25,-510.3 237.08,-759.68 88.83,-249.39 184.42,-495.33 280,-741.26"/>
  <path class="fil0 str1" d="M15823.59 7699.93c-46.61,71.75 -93.23,143.49 -163.53,323.95 -70.29,180.45 -164.28,469.62 -239.06,741.42 -74.78,271.81 -130.35,526.25 -172.5,819.6 -42.15,293.34 -70.89,625.59 -88.92,866.11 -18.04,240.51 -25.39,389.29 -32.74,538.07"/>
  <path class="fil0 str1" d="M15494.76 10655.37c-0.93,-165.24 -1.86,-330.48 14.34,-525.47 16.19,-194.99 49.51,-419.73 86.36,-610.68 36.86,-190.94 77.27,-348.08 140.2,-525.01 62.94,-176.94 148.41,-373.67 206.76,-502.07 58.36,-128.4 89.59,-188.48 120.83,-248.56"/>
  <path class="fil0 str1" d="M16167.8 8876.27c-30.36,91.11 -60.72,182.22 -89.11,276.12 -28.39,93.9 -54.79,190.59 -79.75,291.05 -24.97,100.46 -48.48,204.7 -64.36,296.52 -15.88,91.83 -24.11,171.24 -27.4,222.45 -3.29,51.2 -1.63,74.21 0.02,97.21"/>
  <path class="fil0 str1" d="M13520.97 11572.26c30.31,-59.26 60.61,-118.52 128.35,-201.97 67.74,-83.45 172.92,-191.1 240.15,-251.27 67.24,-60.17 96.53,-72.86 125.83,-85.56"/>
  <path class="fil0 str1" d="M13175.14 11572.98c129.64,-224.73 259.28,-449.45 368.36,-599.91 109.08,-150.45 197.61,-226.62 279.51,-297.32 81.91,-70.7 157.18,-135.93 232.46,-201.16"/>
  <path class="fil0 str1" d="M12831.94 11534.98c109.02,-192.21 218.04,-384.41 332.77,-555.96 114.74,-171.56 235.2,-322.46 349.71,-446.23 114.5,-123.77 223.05,-220.41 317.92,-294.38 94.87,-73.97 176.08,-125.28 257.28,-176.59"/>
  <path class="fil0 str1" d="M12506.02 11461.11c64.12,-108.02 128.23,-216.04 212.67,-350.1 84.44,-134.05 189.21,-294.15 293.13,-447.04 103.91,-152.89 206.96,-298.58 325.1,-438.03 118.13,-139.45 251.35,-272.66 375.12,-389.15 123.77,-116.49 238.09,-216.24 317.25,-280.14 79.15,-63.89 123.13,-91.91 167.11,-119.93"/>
  <path class="fil0 str1" d="M12130.49 11325.5c156.2,-245.49 312.4,-490.98 510.79,-769.42 198.39,-278.44 438.97,-589.84 656.13,-834.77 217.16,-244.93 410.89,-423.4 580.93,-562.63 170.03,-139.23 316.36,-239.22 462.69,-339.21"/>
  <path class="fil0 str1" d="M11865.66 11192.45c215.13,-317.95 430.27,-635.89 581.74,-858.37 151.48,-222.47 239.29,-349.48 349.27,-494.6 109.98,-145.12 242.13,-308.36 385.97,-467.75 143.84,-159.38 299.38,-314.92 459.31,-459.22 159.93,-144.3 324.26,-277.36 473.06,-391.8 148.81,-114.44 282.09,-210.26 415.36,-306.08"/>
  <path class="fil0 str1" d="M11638.04 11048.48c74.43,-50.2 148.85,-100.39 247.42,-206.83 98.57,-106.44 221.27,-269.14 326.64,-433.25 105.36,-164.11 193.37,-329.63 272.89,-505.77 79.52,-176.13 150.53,-362.87 207.6,-555.79 57.06,-192.93 100.17,-392.03 130.67,-605.99 30.49,-213.97 48.37,-442.8 55.82,-748.2 7.45,-305.39 4.48,-687.35 0.47,-970.14 -4,-282.79 -9.04,-466.4 -14.08,-650.01"/>
  <path class="fil0 str1" d="M13117.68 6343.6c65.52,12.55 131.04,25.09 194.97,33.17 63.94,8.07 126.29,11.66 184.53,13.65 58.25,1.99 112.38,2.36 152.73,-2.69 40.34,-5.05 66.89,-15.52 93.43,-25.99"/>
  <path class="fil0 str1" d="M10514.44 8994.51c45.38,-30.66 90.76,-61.33 148.77,-143.54 58,-82.2 128.63,-215.94 174.42,-323.51 45.78,-107.57 66.73,-188.98 79.29,-315.07 12.55,-126.1 16.71,-296.88 18.79,-410.42 2.08,-113.54 2.08,-169.84 2.08,-226.14"/>
  <path class="fil0 str1" d="M10606.21 9622.34c52.74,-25.29 105.48,-50.59 192.11,-172.22 86.63,-121.63 207.14,-339.6 286.18,-515.03 79.05,-175.44 116.62,-308.33 141.74,-494.26 25.13,-185.93 37.8,-424.89 44.14,-646.2 6.34,-221.31 6.34,-424.97 6.34,-628.63"/>
  <path class="fil0 str1" d="M10745.03 9995.47c80.6,-57.01 161.2,-114.02 260.39,-238.07 99.18,-124.05 216.97,-315.14 304.63,-489.84 87.66,-174.69 145.2,-333 190.22,-506.17 45.03,-173.17 77.53,-361.21 93.78,-568.82 16.25,-207.6 16.25,-434.77 13.62,-620.32 -2.62,-185.55 -7.88,-329.49 -13.13,-433.41 -5.25,-103.91 -10.51,-167.8 -15.76,-231.7"/>
  <path class="fil0 str1" d="M11169.85 10634.86c77.34,-64.3 154.67,-128.61 241.66,-232.24 86.98,-103.64 183.62,-246.6 275.23,-412.72 91.61,-166.12 178.21,-355.39 247.22,-535.07 69.01,-179.68 120.43,-349.76 157.5,-527.73 37.06,-177.97 59.76,-363.84 74.81,-601.15 15.05,-237.31 22.44,-526.07 25.86,-783.57 3.41,-257.49 2.86,-483.73 -1.15,-640.67 -4.01,-156.93 -11.47,-244.56 -18.92,-332.18"/>
  <path class="fil0 str1" d="M11908.46 6696.66c9.26,217.24 18.53,434.48 22.12,725.45 3.6,290.96 1.52,655.65 -34.93,977.29 -36.46,321.64 -107.29,600.22 -208.22,870.93 -100.94,270.71 -231.98,533.54 -336.88,704.33 -104.9,170.8 -183.67,249.56 -242.58,302.67 -58.92,53.12 -98,80.58 -137.07,108.04"/>
  <path class="fil0 str1" d="M11380.47 10844.5c120.57,-108.13 241.14,-216.26 358.96,-361.87 117.82,-145.61 232.89,-328.7 328.4,-507.86 95.51,-179.16 171.46,-354.38 242.53,-565.76 71.07,-211.38 137.26,-458.92 178.29,-718.37 41.04,-259.45 56.92,-530.81 64.87,-798.21 7.94,-267.39 7.94,-530.81 -6.16,-768.83 -14.09,-238.02 -42.29,-450.64 -70.48,-663.26"/>
  <path class="fil0 str1" d="M12749.92 9131.16c252.47,-253.75 504.94,-507.51 753.03,-715.54 248.1,-208.03 491.82,-370.34 699.37,-491.16 207.56,-120.82 378.94,-200.15 550.32,-279.49"/>
  <path class="fil0 str1" d="M12854.08 8471.37c214.23,-214.98 428.46,-429.96 600.29,-590.42 171.83,-160.45 301.25,-266.37 417.61,-351.35 116.36,-84.98 219.65,-149.03 330.21,-220.47 110.55,-71.44 228.37,-150.27 346.19,-229.1"/>
  <path class="fil0 str1" d="M12881.47 7870.9c99.34,-108.93 198.68,-217.87 310.8,-322.74 112.11,-104.87 237,-205.68 361.88,-306.5"/>
  <path class="fil0 str1" d="M12888 7193.09c159.28,15.3 318.56,30.6 468.19,40.07 149.63,9.47 289.62,13.11 443.5,2.85 153.88,-10.25 321.67,-34.41 499.46,-80.62 177.81,-46.2 365.62,-114.46 493.64,-165.21 128.02,-50.75 196.24,-84 264.45,-117.25"/>
  <path class="fil0 str1" d="M12880.59 6923.33c317.04,1.59 634.08,3.19 862.02,-14.55 227.93,-17.73 366.77,-54.8 480.08,-90.34 113.32,-35.54 201.12,-69.56 268.62,-100.05 67.5,-30.5 114.7,-57.47 161.91,-84.45"/>
  <path class="fil0 str1" d="M12872.39 6624.57c172.72,11.45 345.45,22.9 484.96,24.72 139.51,1.82 245.8,-6 356.93,-29.7 111.13,-23.7 227.11,-63.28 307.33,-93.24 80.22,-29.95 124.69,-50.28 169.16,-70.61"/>
 </g>
</svg>
